<svg width="1139" height="1139" viewBox="0 0 1139 1139" fill="none" xmlns="http://www.w3.org/2000/svg">
<path d="M734.397 981.708C735.16 981.708 735.779 980.408 735.779 978.803C735.779 977.199 735.16 975.899 734.397 975.899C733.633 975.899 733.015 977.199 733.015 978.803C733.015 980.408 733.633 981.708 734.397 981.708Z" fill="black"/>
<path d="M877.512 427.205L818.751 485.973C807.061 482.351 786.658 505.716 786.658 505.716C786.658 505.716 784.38 499.068 780.826 490.04L861.874 412.276L877.512 427.205Z" fill="#D83587"/>
<path d="M861.874 412.284L780.826 490.047C773.309 470.904 760.15 441.04 751.155 441.04C737.92 441.04 731.903 477.746 731.903 477.746C731.903 477.746 698.207 445.854 694.597 484.364C694.597 484.364 669.918 480.153 669.918 507.231C669.918 507.231 640.433 498.806 647.051 534.309C647.051 534.309 672.705 574.553 676.946 589.706L380.301 874.338L355.3 898.326L284.283 829.792L329.369 783.632L351.788 760.693C380.829 789.126 406.38 756.547 406.38 756.547C450.308 777.838 445.486 732.248 445.486 732.248C477.378 744.883 481.585 714.191 481.585 714.191L440.414 669.994C496.084 681.141 496.046 626.359 496.046 626.359H483.046L580.666 526.434L774.03 328.526L861.874 412.284Z" fill="#D83587"/>
<path d="M348.519 904.848L338.75 914.211L267.942 846.528L278.941 835.271L348.519 904.848Z" fill="#D83587"/>
<path d="M365.209 939.508L334.171 970.546C326.977 977.736 317.231 981.789 307.06 981.82C296.888 981.851 287.117 977.858 279.879 970.713L302.389 949.11L338.761 914.207L351.192 926.094L365.209 939.508Z" fill="#00090C"/>
<path d="M374.196 930.521L365.209 939.508L351.177 926.094L338.75 914.211L348.519 904.848L374.196 930.521Z" fill="#D83587"/>
<path d="M677.345 594.471C674.417 601.453 663.726 608.606 671.057 633.66L381.307 923.41L368.277 910.847L355.304 898.318L380.305 874.33L676.946 589.706C677.58 591.87 677.747 593.518 677.345 594.471Z" fill="#D83587"/>
<path d="M899.396 323.78L861.874 412.284L774.022 328.526L868.582 290.965L899.396 323.78Z" fill="#E8BDA0"/>
<path d="M949.713 258.728L914.803 340.185L899.396 323.78L868.583 290.965L949.713 258.728Z" fill="#00090C"/>
<path d="M355.315 898.325L348.519 904.848L338.75 914.211L267.942 846.527L278.941 835.27L284.283 829.796L355.315 898.325Z" fill="#D83587"/>
<path d="M914.803 340.185L877.512 427.205L861.874 412.284L899.396 323.78L914.803 340.185Z" fill="#E8BDA0"/>
<path d="M355.315 898.325L348.519 904.848L278.941 835.27L284.283 829.796L355.315 898.325Z" fill="#00090C"/>
<path d="M381.307 923.41L374.196 930.521L348.519 904.848L355.315 898.325L368.288 910.847L381.307 923.41Z" fill="#00090C"/>
<g opacity="0.18">
<path d="M380.316 874.338L355.315 898.326L348.534 904.848L338.765 914.207L302.393 949.11L279.883 970.713C287.121 977.858 296.892 981.851 307.063 981.82C317.235 981.789 326.981 977.736 334.175 970.546L365.213 939.508L374.196 930.521L381.311 923.41L671.057 633.664C663.726 608.606 674.417 601.457 677.345 594.475C677.747 593.522 677.58 591.874 676.965 589.71L380.316 874.338Z" fill="#00090C"/>
<path d="M899.396 323.78L861.874 412.284L780.827 490.047C784.365 499.076 786.658 505.724 786.658 505.724C786.658 505.724 807.062 482.344 818.752 485.981L877.513 427.22L914.803 340.181L899.396 323.78Z" fill="#00090C"/>
</g>
<path d="M786.058 954.896V1020.47H685.583L718.193 839.405C718.255 844.992 718.654 850.571 719.389 856.11C723.151 884.388 737.829 924.15 786.058 954.896Z" fill="#D83587"/>
<path d="M786.058 945.864V950.42C740.73 920.692 726.747 882.816 723.125 855.769C719.024 825.183 726.868 801.408 726.952 801.176L725.175 800.576L723.406 799.977C723.132 800.782 717.881 816.61 718.193 839.39L685.583 1020.45H408.187L374.192 930.506L381.307 923.395L671.057 633.664C671.723 635.957 672.549 638.406 673.536 641.01C685.374 672.097 726.485 793.34 726.485 793.34C726.485 793.34 820.304 828.835 819.454 742.799L772.975 614.635C772.975 614.635 779.152 608.75 786.032 599.163L902.468 805.064C914.237 944.964 786.058 945.864 786.058 945.864Z" fill="#FF4C9E"/>
<path d="M772.975 614.631L819.454 742.795C820.304 828.831 726.485 793.336 726.485 793.336C726.485 793.336 685.374 672.094 673.529 641.006C672.539 638.399 671.713 635.951 671.049 633.66C663.718 608.602 674.409 601.453 677.337 594.471C677.739 593.518 677.572 591.87 676.957 589.706C672.716 574.565 647.062 534.309 647.062 534.309C640.445 498.806 669.929 507.231 669.929 507.231C669.929 480.153 694.608 484.364 694.608 484.364C698.218 445.858 731.914 477.746 731.914 477.746C731.914 477.746 737.931 441.04 751.167 441.04C760.161 441.04 773.32 470.904 780.838 490.047C784.376 499.076 786.669 505.724 786.669 505.724C786.669 505.724 807.073 482.344 818.763 485.981C820.98 486.664 822.882 488.32 824.275 491.296C833.008 509.949 804.115 555.08 804.115 555.08C802.672 572.423 793.906 588.225 786.043 599.182C779.152 608.746 772.975 614.631 772.975 614.631Z" fill="#FCBAB9"/>
<path d="M815.463 770.344C797.672 820.266 726.481 793.34 726.481 793.34C726.481 793.34 685.374 672.094 673.529 641.01C672.538 638.398 671.714 635.957 671.049 633.66C667.811 622.581 668.092 614.999 669.675 609.392C678.817 644.868 719.825 724.465 736.766 756.55C738.964 760.714 742.256 764.199 746.289 766.63C750.321 769.06 754.94 770.344 759.648 770.344H815.463Z" fill="#E0ADAD"/>
<path d="M338.75 914.207L302.378 949.11L279.868 970.713L264.628 955.682L239.289 930.662C232.048 923.507 227.933 913.778 227.843 903.599C227.754 893.42 231.697 883.62 238.81 876.339L267.938 846.528L338.75 914.207Z" fill="#00090C"/>
<path d="M329.368 783.632L284.283 829.792L278.941 835.267L267.931 846.524L238.81 876.339C231.697 883.621 227.756 893.422 227.847 903.601C227.938 913.779 232.054 923.508 239.296 930.662L264.635 955.682C250.462 952.846 195.27 939.413 190.376 901.34C184.757 857.61 199.602 838.357 263.378 771.771C282.138 752.192 301.725 731.527 320.063 712.164L329.368 783.632Z" fill="#FF4C9E"/>
<path d="M440.413 669.994L481.603 714.21C481.603 714.21 477.393 744.902 445.505 732.267C445.505 732.267 450.315 777.846 406.399 756.565C406.399 756.565 380.848 789.145 351.807 760.711L329.369 783.632L320.059 712.16C364.04 665.635 400.666 626.355 400.666 626.355H496.031C496.031 626.355 496.076 681.141 440.413 669.994Z" fill="#FCBAB9"/>
<path d="M351.784 760.7L329.384 783.643L326.794 763.889L343.397 741.914C343.397 741.914 344.358 754.637 351.784 760.7Z" fill="#E0ADAD"/>
<path d="M674.74 409.152C675.199 449.894 603.362 467.48 570.191 473.422C573.429 468.903 576.202 464.07 578.468 458.994C605.546 398.912 603.738 376.048 603.738 376.048C603.738 376.048 641.044 364.617 638.03 335.735C635.015 306.854 602.539 303.247 590.503 311.672C590.503 311.672 555.001 238.86 535.748 237.056C535.748 237.056 532.137 274.362 515.287 296.022L520.09 258.769C519.521 260.706 500.959 322.819 431.658 351.609C432.691 350.702 498.48 292.784 506.855 260.546C505.815 261.924 437.756 352.543 372.073 347.771C372.073 347.771 346.203 352.581 348.01 380.866C349.817 409.152 385.916 412.276 385.916 412.276C385.916 412.276 396.027 440.88 414.425 464.731C419.798 471.694 425.872 478.255 432.623 483.57C429.87 483.916 426.396 484.303 422.402 484.629C394.929 486.866 342.881 486.175 332.36 450.664C317.933 401.927 338.378 293.015 366.663 265.341C379.367 252.911 398.863 235.378 424.555 222.781C450.535 210.051 482.864 202.351 520.903 210.081C529.422 211.822 537.799 214.203 545.961 217.204C635.027 249.699 674.14 356.203 674.74 409.152Z" fill="#00090C"/>
<path d="M638.03 335.743C635.027 306.866 602.538 303.255 590.503 311.68C590.503 311.68 555 238.867 535.747 237.064C535.747 237.064 532.137 274.37 515.287 296.03L520.09 258.777C519.521 260.713 500.959 322.827 431.658 351.617C432.691 350.71 498.479 292.791 506.855 260.554C505.815 261.932 437.756 352.551 372.073 347.779C372.073 347.779 346.203 352.589 348.01 380.874C349.817 409.159 385.916 412.284 385.916 412.284C385.916 412.284 396.026 440.888 414.425 464.739C419.797 471.702 425.872 478.262 432.622 483.578C435.516 485.889 438.592 487.962 441.822 489.774C469.575 505.283 520.792 514.452 554.776 489.121C554.789 489.105 554.804 489.092 554.822 489.083C556.458 487.857 558.053 486.566 559.606 485.18C563.553 481.658 567.099 477.711 570.179 473.41C573.417 468.892 576.19 464.058 578.456 458.983C605.534 398.901 603.727 376.037 603.727 376.037C603.727 376.037 641.044 364.624 638.03 335.743ZM459.636 381.474C453.485 381.474 448.496 374.792 448.496 366.545C448.496 358.299 453.485 351.625 459.636 351.625C465.786 351.625 470.764 358.307 470.764 366.545C470.764 374.784 465.786 381.474 459.636 381.474ZM537.581 375.49C531.947 375.49 527.38 368.93 527.38 360.831C527.38 352.733 531.936 346.184 537.581 346.184C543.227 346.184 547.787 352.745 547.787 360.831C547.787 368.918 543.219 375.49 537.581 375.49Z" fill="#FCBAB9"/>
<path d="M520.903 210.089C482.864 202.355 450.535 210.058 424.551 222.788C415.059 208.524 399.637 182.289 402.15 165.459C405.765 141.395 441.864 118.532 464.731 118.532C487.598 118.532 519.604 123.95 527.376 140.796C532.953 152.88 525.55 190.038 520.903 210.089Z" fill="#00090C"/>
<path d="M547.787 360.835C547.787 368.934 543.231 375.494 537.582 375.494C531.932 375.494 527.38 368.934 527.38 360.835C527.38 352.737 531.936 346.188 537.582 346.188C543.227 346.188 547.787 352.748 547.787 360.835Z" fill="#00090C"/>
<path d="M470.764 366.545C470.764 374.792 465.787 381.474 459.636 381.474C453.485 381.474 448.497 374.792 448.497 366.545C448.497 358.299 453.485 351.625 459.636 351.625C465.787 351.625 470.764 358.307 470.764 366.545Z" fill="#00090C"/>
<path d="M554.788 489.121C553.037 490.609 498.358 536.659 444.472 539.708L422.413 484.656C426.407 484.329 429.881 483.942 432.634 483.597C435.527 485.908 438.604 487.98 441.833 489.793C469.587 505.283 520.792 514.448 554.788 489.121Z" fill="#E0ADAD"/>
<path d="M483.035 626.363H486.676L481.19 631.386L479.178 626.37L444.472 539.715C498.358 536.678 553.057 490.617 554.788 489.128C554.8 489.113 554.816 489.1 554.834 489.09C556.47 487.864 558.065 486.573 559.617 485.188L580.659 526.446L483.035 626.363Z" fill="#FCBAB9"/>
<path d="M786.058 950.431V954.896C737.84 924.143 723.151 884.388 719.388 856.114C718.654 850.575 718.255 844.996 718.193 839.409C717.881 816.629 723.128 800.8 723.405 799.996L725.175 800.595L726.951 801.195C726.868 801.427 719.024 825.202 723.124 855.788C726.746 882.816 740.729 920.692 786.058 950.431Z" fill="#00090C"/>
<path d="M737.256 484.756L734.745 486.007L760.328 537.342L762.84 536.09L737.256 484.756Z" fill="#00090C"/>
<path d="M699.005 491.038L696.607 492.502L734.804 555.079L737.202 553.615L699.005 491.038Z" fill="#00090C"/>
<path d="M675.961 513.189L673.522 514.583L708.615 575.957L711.054 574.562L675.961 513.189Z" fill="#00090C"/>
<path d="M392.755 676.891L390.751 678.86L436.081 724.988L438.085 723.019L392.755 676.891Z" fill="#00090C"/>
<path d="M364.263 709.745L362.298 711.753L400.005 748.653L401.97 746.645L364.263 709.745Z" fill="#00090C"/>
</svg>
