<svg width="1139" height="1139" viewBox="0 0 1139 1139" fill="none" xmlns="http://www.w3.org/2000/svg">
<path d="M625.63 690.056C623.215 694.771 620.801 699.862 618.416 705.273C608.192 728.25 598.085 757.059 588.529 788.002C560.908 877.501 537.988 984.753 530.82 1019.46H493.069C492.69 976.199 492.154 901.002 492.124 835.054V826.405C492.124 778.905 492.435 737.332 493.305 717.703C493.603 710.541 493.155 703.367 491.968 696.297C529.407 670.21 569.306 662.887 609.133 689.725C609.133 689.725 611.37 689.763 615.497 689.858C618.124 689.904 621.514 689.968 625.63 690.056Z" fill="#FF4C9E"/>
<path d="M884.54 697.087L786.32 1019.46H711.495L740.149 805.592C764.857 797.383 821.568 770.879 847.325 695.785C860.025 696.206 872.504 696.635 884.54 697.087Z" fill="#D83587"/>
<path d="M1062.8 795.626C1054.37 730.649 1019.48 713.804 1006.23 705.379C1001.5 702.376 949.47 699.509 884.532 697.087L786.312 1019.46H1050.75C1050.75 1019.46 1071.22 860.609 1062.8 795.626ZM871.905 1008.7L869.198 1007.94L897.183 906.853L899.89 907.612L871.905 1008.7Z" fill="#FF4C9E"/>
<path d="M897.132 906.767L869.155 1007.85L871.859 1008.6L899.836 907.516L897.132 906.767Z" stroke="#D4DC0C" stroke-miterlimit="10"/>
<path d="M673.289 1019.46H530.808C537.969 984.757 560.889 877.505 588.517 788.006L606.05 903.425C612.478 945.735 633.587 984.435 665.681 1012.75L673.289 1019.46Z" fill="#E0ADAD"/>
<path d="M902.247 589.315L784.551 690.887L781.202 693.78L751.728 719.218L740.156 805.6L711.495 1019.46H673.289L665.669 1012.74C633.578 984.425 612.469 945.726 606.039 903.417L588.51 787.998C598.066 757.055 608.173 728.246 618.397 705.269C620.8 699.859 623.215 694.767 625.611 690.052C634.229 673.195 642.851 661.11 651.208 656.026C691.802 631.317 724.624 614.377 739.245 607.106C744.56 604.448 747.472 603.081 747.472 603.081L759.508 541.109C759.508 541.109 728.827 465.297 767.333 474.318C767.333 474.318 774.546 440.022 792.011 449.047L807.65 482.143C807.65 482.143 817.02 452.38 829.431 456.674C829.982 456.948 830.57 457.21 831.117 457.472L853.98 517.634V572.997L868.408 557.958C868.408 557.958 859.387 506.806 883.45 496.577L908.637 564.238C910.255 568.571 910.51 573.295 909.368 577.777C908.226 582.259 905.741 586.284 902.247 589.315Z" fill="#FCBAB9"/>
<path d="M829.458 456.678C817.047 452.384 807.676 482.146 807.676 482.146L792.038 449.051C774.573 440.026 767.36 474.321 767.36 474.321C728.854 465.3 759.535 541.112 759.535 541.112L747.499 603.085C747.499 603.085 744.587 604.448 739.272 607.11C724.651 614.38 691.814 631.321 651.235 656.03C649.248 655.359 647.301 654.664 645.396 653.945C686.02 627.54 721.709 610.618 737.176 602.926C739.872 601.578 741.949 600.564 743.353 599.889L754.679 541.579C751.186 532.65 736.345 492.223 747.275 476.015C749.466 472.776 753.707 468.911 761.513 468.911C762.272 468.911 763.066 468.949 763.878 469.021C766.342 460.422 772.99 442.874 786.351 442.874C789.088 442.91 791.775 443.606 794.187 444.901L795.592 445.634L807.282 470.361C809.358 465.934 816.116 456.545 821.61 452.661C824.162 454.069 826.777 455.408 829.458 456.678Z" fill="#E0ADAD"/>
<path d="M821.598 452.654C816.105 456.538 809.347 465.942 807.27 470.354L795.58 445.626L794.175 444.894C791.764 443.598 789.076 442.903 786.339 442.866C772.993 442.866 766.33 460.414 763.866 469.014C763.054 468.942 762.268 468.904 761.501 468.904C753.695 468.904 749.454 472.769 747.263 476.007C736.333 492.227 751.174 532.642 754.667 541.572L743.357 599.873C741.952 600.557 739.875 601.571 737.18 602.911C721.708 610.603 686.019 627.525 645.399 653.93C645.072 653.809 644.753 653.687 644.435 653.573C643.592 653.255 642.768 652.928 641.944 652.602C627.463 646.861 615.064 639.879 604.535 631.898C542.164 584.687 545.007 502.364 567.002 433.401C576.801 402.648 602.121 379.838 630.106 363.277C677.709 335.124 733.072 325.101 733.072 325.101C733.072 325.101 743.733 378.414 781.669 420.561C792.588 432.699 805.766 443.914 821.598 452.654Z" fill="#FCBAB9"/>
<path d="M980.964 618.728C956.217 626.606 834.663 701.821 784.54 690.891L902.236 589.319C905.734 586.295 908.225 582.275 909.374 577.796C910.524 573.318 910.277 568.595 908.668 564.261L883.485 496.581C859.421 506.832 868.442 557.962 868.442 557.962L854.015 573.004V517.641L831.151 457.475C830.615 457.16 830.051 456.894 829.466 456.682C752.059 420.002 733.08 325.101 733.08 325.101C733.08 325.101 677.705 335.128 630.106 363.28C629.552 362.297 591.441 293.737 642.818 282.985C642.818 282.985 662.071 190.323 734.268 237.254C734.268 237.254 806.75 138.575 910.103 262.524C910.103 262.524 1005.02 275.767 1017.06 334.733C1029.11 393.699 1008.64 473.118 1008.64 473.118C1008.64 473.118 1036.33 465.904 1047.16 508.021C1057.98 550.137 1007.44 610.303 980.964 618.728Z" fill="#00090C"/>
<path d="M831.144 457.476C830.582 457.214 830.005 456.952 829.458 456.682C830.043 456.894 830.607 457.16 831.144 457.476Z" stroke="#D4DC0C" stroke-miterlimit="10"/>
<path d="M847.325 695.785C821.568 770.879 764.858 797.384 740.149 805.592L751.717 719.214L781.191 693.776C803.158 694.41 825.574 695.063 847.325 695.785Z" fill="#E0ADAD"/>
<path d="M493.058 1019.46H423.985C453.413 974.179 480.491 879.335 492.113 835.054C492.143 900.995 492.686 976.199 493.058 1019.46Z" fill="#E0ADAD"/>
<path d="M493.293 717.703C492.424 737.332 492.124 778.905 492.112 826.405V835.054C480.491 879.335 453.413 974.179 423.985 1019.46H290.217L290.236 1019.39L364.222 749.686L161.453 642.799C161.453 642.799 153.032 585.028 233.654 634.374C233.654 634.374 205.977 588.643 219.227 581.425C232.477 574.208 270.968 617.524 270.968 617.524L266.56 590.644C266.56 590.644 284.602 576.596 305.468 605.891C326.335 635.186 331.141 659.644 331.141 659.644L393.71 641.189C393.71 641.189 351.188 575.408 362.825 560.563C374.461 545.718 394.515 550.942 417.383 576.604C437.543 599.247 483.293 643.956 491.961 696.297C493.146 703.367 493.593 710.541 493.293 717.703Z" fill="#FCBAB9"/>
<path d="M651.238 656.03C642.886 661.114 634.26 673.198 625.641 690.055C621.541 689.968 618.135 689.904 615.496 689.858L604.547 631.913C615.075 639.886 627.475 646.876 641.955 652.617C642.779 652.943 643.603 653.27 644.446 653.588C644.765 653.702 645.084 653.824 645.41 653.945C647.314 654.667 649.256 655.362 651.238 656.03Z" fill="#E0ADAD"/>
<path d="M714.204 439.94C718.799 434.363 719.51 427.359 715.791 424.294C712.073 421.23 705.333 423.266 700.738 428.843C696.143 434.419 695.432 441.424 699.151 444.488C702.869 447.552 709.609 445.516 714.204 439.94Z" fill="#00090C"/>
<path d="M647.417 396.021C652.012 390.445 652.722 383.44 649.004 380.376C645.285 377.311 638.545 379.348 633.95 384.924C629.355 390.5 628.644 397.505 632.363 400.569C636.082 403.634 642.821 401.597 647.417 396.021Z" fill="#00090C"/>
<path d="M791.017 613.507L788.238 613.12L798.405 540.148L770.925 485.787L773.431 484.519L801.306 539.666L801.245 540.102L791.017 613.507Z" fill="#00090C"/>
<path d="M822.369 613.465L819.579 613.165L828.023 534.104L811.2 494.121L813.785 493.031L830.893 533.678L822.369 613.465Z" fill="#00090C"/>
<path d="M851.805 580.222H848.995V607.899H851.805V580.222Z" fill="#00090C"/>
<path d="M239.694 639.166L237.203 640.466L251.643 668.146L254.134 666.846L239.694 639.166Z" fill="#00090C"/>
<path d="M275.301 621.962L272.604 622.752L292.458 690.47L295.154 689.68L275.301 621.962Z" fill="#00090C"/>
<path d="M399.109 709.043L336.069 678.13L331.654 668.031L334.224 666.904L338.23 676.061L400.347 706.522L399.109 709.043Z" fill="#00090C"/>
<path d="M897.132 906.767L869.155 1007.85L871.859 1008.6L899.836 907.516L897.132 906.767Z" fill="#00090C"/>
<path d="M445.455 471.914C460.076 471.914 471.929 460.061 471.929 445.44C471.929 430.819 460.076 418.966 445.455 418.966C430.834 418.966 418.981 430.819 418.981 445.44C418.981 460.061 430.834 471.914 445.455 471.914Z" fill="#FF4C9E"/>
<path d="M482.613 521.556C491.171 521.556 498.108 514.619 498.108 506.062C498.108 497.504 491.171 490.567 482.613 490.567C474.056 490.567 467.119 497.504 467.119 506.062C467.119 514.619 474.056 521.556 482.613 521.556Z" fill="#FF4C9E"/>
<path d="M530.808 279.37C518.685 221.611 493.388 227.629 493.388 227.629C493.388 227.629 494.793 209.576 471.937 181.898C449.081 154.22 400.343 175.88 400.343 175.88C400.343 175.88 384.086 144.592 327.299 122.932C270.512 101.272 208.384 190.323 208.384 190.323C208.384 190.323 86.8485 146.995 74.8131 289.602C62.7777 432.209 224.022 409.341 224.022 409.341C232.447 468.307 290.206 412.952 290.206 412.952C290.206 412.952 323.901 443.037 352.782 445.44C381.664 447.843 409.353 390.536 409.353 390.536C409.353 390.536 464.704 405.723 482.628 396.106C500.552 386.489 542.923 337.144 530.808 279.37ZM203.573 317.887L173.507 353.986V309.462L124.151 316.676L167.478 290.198L173.507 246.882L192.745 273.36L226.441 255.314L215.609 291.417L245.693 331.13L203.573 317.887ZM325.12 311.869L295.035 347.968V303.445L245.678 310.658L289.002 284.188L295.02 240.86L314.273 267.338L347.968 249.285L337.144 285.388L367.225 325.101L325.12 311.869ZM437.63 307.048L407.549 343.158V298.623L358.215 305.837L401.531 279.359L407.549 236.042L426.802 262.513L460.497 244.467L449.669 280.574L479.75 320.287L437.63 307.048Z" fill="#D83587"/>
<path d="M245.693 331.123L203.573 317.887L173.492 353.986V309.463L124.147 316.68L167.475 290.202L173.492 246.882L192.745 273.352L226.441 255.307L215.609 291.409L245.693 331.123Z" fill="#CCB909"/>
<path d="M367.237 325.101L325.12 311.87L295.035 347.968V303.445L245.694 310.662L289.018 284.192L295.035 240.864L314.288 267.342L347.984 249.289L337.156 285.388L367.237 325.101Z" fill="#CCB909"/>
<path d="M479.75 320.291L437.63 307.048L407.549 343.158V298.623L358.215 305.848L401.531 279.37L407.549 236.054L426.802 262.524L460.498 244.479L449.669 280.577L479.75 320.291Z" fill="#CCB909"/>
</svg>
