<svg width="1139" height="1139" viewBox="0 0 1139 1139" fill="none" xmlns="http://www.w3.org/2000/svg">
<path d="M581.399 981.708C582.162 981.708 582.781 980.408 582.781 978.803C582.781 977.199 582.162 975.899 581.399 975.899C580.635 975.899 580.017 977.199 580.017 978.803C580.017 980.408 580.635 981.708 581.399 981.708Z" fill="black"/>
<path d="M988.777 651.63C985.163 740.092 986.97 747.306 923.794 842.982L923.251 843.805C884.923 865.287 842.898 885.189 799.365 903.455C799.168 903.052 799.047 902.828 799.039 902.809L796.537 904.089L796.772 904.541C668.308 958.218 527.239 997.734 430.208 1021.69H344.358V935.024C295.62 916.979 232.443 855.605 183.706 785.2C134.968 714.795 151.21 458.482 151.21 458.482H181.902V606.495C181.901 612.658 183.114 618.762 185.472 624.456C187.83 630.151 191.286 635.326 195.643 639.685C200.001 644.044 205.174 647.502 210.868 649.861C216.562 652.221 222.665 653.436 228.829 653.437H270.418C276.23 701.992 299.903 807.376 396.11 811.082C416.992 811.887 440.531 812.316 465.505 812.475C477.951 835.172 505.302 868.848 560.973 879.676C621.07 891.366 660.905 841.095 679.664 809.206C730.095 807.654 770.078 805.96 786.009 805.072C829.325 802.665 889.965 716.021 891.556 653.444H907.559C913.723 653.443 919.826 652.227 925.52 649.867C931.214 647.507 936.388 644.048 940.745 639.688C945.102 635.328 948.558 630.153 950.915 624.458C953.272 618.762 954.484 612.659 954.482 606.495V458.482H988.777C988.777 458.482 992.392 563.179 988.777 651.63Z" fill="#FF4C9E"/>
<path d="M901.135 296.03C901.135 296.03 885.785 303.243 893.921 323.1L933.354 365.528C933.354 365.528 923.706 373.641 927.317 394.382C930.927 415.124 954.395 458.466 954.395 458.466H954.501V606.472C954.501 612.637 953.288 618.742 950.929 624.438C948.57 630.133 945.112 635.309 940.753 639.669C936.395 644.028 931.22 647.487 925.524 649.846C919.828 652.206 913.724 653.421 907.559 653.421H745.593C745.372 650.794 745.003 648.182 744.488 645.596C739.64 620.918 718.629 605.257 707.752 598.658C705.618 597.348 703.419 596.145 701.164 595.055C663.866 506.593 586.843 507.204 530.284 516.844C481.763 525.098 453.702 582.526 446.708 598.677C445.569 601.354 444.969 602.899 444.969 602.899C434.27 600.492 424.387 606.491 404.535 626.355C398.08 632.809 396.448 642.855 397.207 653.44H228.836C216.387 653.437 204.449 648.489 195.648 639.685C186.847 630.88 181.904 618.94 181.906 606.491V458.485C181.906 458.485 205.369 415.169 208.984 394.401C212.598 373.634 202.947 365.547 202.947 365.547L242.379 323.096C250.493 303.232 235.165 296.026 235.165 296.026C241.468 268.045 218.004 265.33 218.004 265.33C217.108 253.602 206.269 240.967 197.244 242.774C188.22 244.581 181.906 264.442 181.906 264.442V164.244C181.907 151.798 186.852 139.862 195.653 131.061C204.454 122.261 216.39 117.317 228.836 117.317H907.544C919.991 117.316 931.929 122.259 940.731 131.06C949.534 139.86 954.48 151.797 954.482 164.244V264.248C954.443 264.308 954.407 264.37 954.376 264.434C954.376 264.434 948.058 244.581 939.037 242.766C930.016 240.952 919.173 253.617 918.281 265.33C918.281 265.33 894.817 268.045 901.135 296.03Z" fill="#D83587"/>
<path d="M242.379 323.096L202.943 365.52C202.943 365.52 212.587 373.645 208.984 394.405C205.38 415.166 181.906 458.482 181.906 458.482H161.146V264.438C161.146 264.438 171.974 246.381 181.906 264.438C181.906 264.438 188.223 244.585 197.244 242.797C206.265 241.009 217.105 253.617 218.004 265.334C218.004 265.334 241.468 268.049 235.15 296.026C235.15 296.026 250.492 303.244 242.379 323.096Z" fill="#FCBAB9"/>
<path d="M975.14 264.438V458.482H954.379C954.379 458.482 930.916 415.165 927.302 394.405C923.687 373.645 933.338 365.52 933.338 365.52L893.906 323.096C885.781 303.236 901.12 296.018 901.12 296.018C894.802 268.041 918.269 265.326 918.269 265.326C919.165 253.598 929.997 240.963 939.029 242.77C948.062 244.577 954.368 264.411 954.368 264.411C954.406 264.343 954.444 264.278 954.47 264.221C964.387 246.514 975.14 264.438 975.14 264.438Z" fill="#FCBAB9"/>
<path d="M212.892 270.077L166.958 328.637L169.169 330.371L215.102 271.81L212.892 270.077Z" fill="#00090C"/>
<path d="M178.284 346.56L176.298 344.574C177.494 343.374 221.38 301.03 223.244 299.227L225.196 301.246C224.74 301.691 179.465 345.379 178.284 346.56Z" fill="#00090C"/>
<path d="M180.536 269.893L171.708 313.013L174.46 313.576L183.288 270.456L180.536 269.893Z" fill="#00090C"/>
<path d="M924.782 270.609L922.571 272.343L968.505 330.903L970.716 329.169L924.782 270.609Z" fill="#00090C"/>
<path d="M959.376 347.042L961.358 345.056C960.162 343.857 916.276 301.512 914.408 299.709L912.46 301.733C912.916 302.173 958.195 345.876 959.376 347.042Z" fill="#00090C"/>
<path d="M957.136 270.283L954.383 270.846L963.211 313.967L965.964 313.403L957.136 270.283Z" fill="#00090C"/>
<path d="M731.238 695.549C731.238 695.549 753.498 738.266 725.82 763.536C698.142 788.807 665.654 782.182 665.654 782.182C665.654 782.182 651.755 796.089 639.837 797.167L636.898 752.879C661.049 735.012 673.039 708.868 679.664 694.372C679.664 694.372 700.546 707.008 716.214 687.159C725.326 675.571 719.312 660.715 709.001 653.463C701.635 648.258 692.09 646.948 684.322 653.463C684.322 653.463 675.188 622.612 659.264 598.7C652.073 587.906 643.512 578.528 633.777 574.022C602.497 559.594 584.443 555.369 584.443 555.369C584.443 555.369 549.541 604.103 502.01 594.474C502.01 594.474 501.251 596.046 499.903 598.677C493.335 611.658 473.182 650.445 465.509 653.44C465.509 653.44 439.434 661.246 446.047 682.922C452.661 704.597 474.932 696.757 474.932 696.757C474.932 696.757 482.803 732.643 515.845 754.777V790.773C505.53 791.282 488.449 790.269 486.36 778.355C486.36 778.355 432.216 792.433 415.966 758.737C399.717 725.042 410.549 699.771 410.549 699.771C410.549 699.771 398.779 675.397 397.211 653.452C396.451 642.867 398.073 632.832 404.538 626.366C424.391 606.502 434.274 600.504 444.973 602.911C444.973 602.911 445.554 601.365 446.712 598.689C453.705 582.541 481.766 525.109 530.288 516.855C586.858 507.235 663.87 506.635 701.168 595.067C703.423 596.157 705.621 597.359 707.755 598.67C718.633 605.268 739.647 620.918 744.492 645.608C745.007 648.193 745.376 650.806 745.597 653.433C748.027 681.82 731.238 695.549 731.238 695.549Z" fill="#00090C"/>
<path d="M709.005 653.44C701.639 648.235 692.094 646.925 684.326 653.44C684.326 653.44 675.191 622.589 659.268 598.677C652.077 587.883 643.516 578.506 633.781 573.999C602.501 559.572 584.447 555.346 584.447 555.346C584.447 555.346 549.545 604.08 502.014 594.452C502.014 594.452 501.255 596.023 499.907 598.655C493.339 611.635 473.186 650.422 465.513 653.418C465.513 653.418 439.437 661.224 446.051 682.899C452.665 704.574 474.936 696.734 474.936 696.734C474.936 696.734 482.807 732.62 515.849 754.754C528.484 763.217 544.818 769.683 565.791 771.35C597.045 773.829 619.965 765.37 636.906 752.837C661.056 734.97 673.046 708.826 679.672 694.331C679.672 694.331 700.553 706.966 716.222 687.117C725.338 675.548 719.312 660.692 709.005 653.44ZM543.067 619.438C541.014 619.438 539.008 618.829 537.301 617.688C535.594 616.548 534.263 614.926 533.477 613.03C532.692 611.133 532.486 609.046 532.887 607.032C533.287 605.019 534.276 603.169 535.728 601.718C537.179 600.266 539.029 599.277 541.042 598.877C543.056 598.476 545.143 598.682 547.04 599.467C548.936 600.253 550.558 601.584 551.698 603.291C552.839 604.998 553.448 607.004 553.448 609.057C553.448 611.81 552.354 614.451 550.407 616.397C548.461 618.344 545.82 619.438 543.067 619.438ZM633.922 619.438C631.869 619.438 629.862 618.829 628.155 617.688C626.448 616.548 625.117 614.926 624.332 613.03C623.546 611.133 623.341 609.046 623.741 607.032C624.142 605.019 625.13 603.169 626.582 601.718C628.034 600.266 629.883 599.277 631.897 598.877C633.91 598.476 635.997 598.682 637.894 599.467C639.791 600.253 641.412 601.584 642.552 603.291C643.693 604.998 644.302 607.004 644.302 609.057C644.303 610.421 644.035 611.771 643.514 613.031C642.992 614.291 642.228 615.435 641.264 616.399C640.3 617.364 639.155 618.128 637.895 618.649C636.635 619.171 635.285 619.438 633.922 619.438Z" fill="#FCBAB9"/>
<path d="M553.448 609.057C553.448 611.11 552.839 613.117 551.698 614.824C550.558 616.531 548.937 617.862 547.04 618.647C545.143 619.433 543.056 619.638 541.043 619.238C539.029 618.837 537.179 617.849 535.728 616.397C534.276 614.946 533.287 613.096 532.887 611.082C532.486 609.069 532.692 606.982 533.478 605.085C534.263 603.188 535.594 601.567 537.301 600.427C539.008 599.286 541.015 598.677 543.068 598.677C544.431 598.677 545.781 598.945 547.04 599.466C548.3 599.988 549.445 600.752 550.409 601.716C551.373 602.68 552.137 603.825 552.659 605.084C553.18 606.344 553.448 607.694 553.448 609.057Z" fill="#FCBAB9"/>
<path d="M644.295 609.057C644.294 611.109 643.685 613.115 642.544 614.821C641.404 616.526 639.783 617.856 637.887 618.641C635.992 619.426 633.905 619.631 631.893 619.23C629.881 618.83 628.032 617.842 626.581 616.391C625.13 614.94 624.142 613.091 623.742 611.079C623.341 609.066 623.546 606.98 624.331 605.084C625.116 603.189 626.445 601.568 628.151 600.428C629.857 599.287 631.863 598.678 633.915 598.677C635.278 598.677 636.628 598.945 637.887 599.466C639.147 599.988 640.291 600.752 641.255 601.716C642.219 602.68 642.984 603.825 643.505 605.084C644.027 606.344 644.295 607.694 644.295 609.057Z" fill="#FCBAB9"/>
<path d="M640.259 803.599C628.056 803.861 612.357 803.815 597.075 802.661C574.143 800.922 535.664 785.72 515.827 777.333V754.777C528.462 763.24 544.795 769.706 565.768 771.372C597.022 773.852 619.943 765.393 636.883 752.86L639.822 797.178L640.259 803.599Z" fill="#E0ADAD"/>
<path d="M679.664 809.199C660.905 841.091 621.07 891.359 560.973 879.669C505.302 868.848 477.951 835.172 465.505 812.468C474.853 812.525 484.409 812.544 494.098 812.525C496.539 812.525 498.992 812.525 501.456 812.525C503.84 812.525 506.232 812.516 508.632 812.498C511.031 812.498 513.435 812.479 515.845 812.449V777.33C535.668 785.724 574.147 800.926 597.094 802.657C612.376 803.796 628.071 803.857 640.277 803.595L640.725 810.304C642.806 810.247 644.864 810.201 646.922 810.144L651.948 810.004C653.847 809.958 655.745 809.901 657.643 809.844C659.542 809.787 661.394 809.742 663.259 809.689C664.652 809.651 666.045 809.613 667.435 809.563C668.824 809.514 670.199 809.491 671.566 809.442C672.932 809.392 674.295 809.37 675.655 809.32L679.664 809.199Z" fill="#FCBAB9"/>
<path d="M553.448 609.057C553.448 611.11 552.839 613.117 551.698 614.824C550.558 616.531 548.937 617.862 547.04 618.647C545.143 619.433 543.056 619.638 541.043 619.238C539.029 618.837 537.179 617.849 535.728 616.397C534.276 614.946 533.287 613.096 532.887 611.082C532.486 609.069 532.692 606.982 533.478 605.085C534.263 603.188 535.594 601.567 537.301 600.427C539.008 599.286 541.015 598.677 543.068 598.677C544.431 598.677 545.781 598.945 547.04 599.466C548.3 599.988 549.445 600.752 550.409 601.716C551.373 602.68 552.137 603.825 552.659 605.084C553.18 606.344 553.448 607.694 553.448 609.057Z" fill="#00090C"/>
<path d="M644.295 609.057C644.294 611.109 643.685 613.115 642.544 614.821C641.404 616.526 639.783 617.856 637.887 618.641C635.992 619.426 633.905 619.631 631.893 619.23C629.881 618.83 628.032 617.842 626.581 616.391C625.13 614.94 624.142 613.091 623.742 611.079C623.341 609.066 623.546 606.98 624.331 605.084C625.116 603.189 626.445 601.568 628.151 600.428C629.857 599.287 631.863 598.678 633.915 598.677C635.278 598.677 636.628 598.945 637.887 599.466C639.147 599.988 640.291 600.752 641.255 601.716C642.219 602.68 642.984 603.825 643.505 605.084C644.027 606.344 644.295 607.694 644.295 609.057Z" fill="#00090C"/>
<path d="M230.142 176.287C238.45 176.287 245.185 169.552 245.185 161.245C245.185 152.937 238.45 146.202 230.142 146.202C221.835 146.202 215.1 152.937 215.1 161.245C215.1 169.552 221.835 176.287 230.142 176.287Z" fill="#00090C"/>
<path d="M272.259 176.287C280.567 176.287 287.302 169.552 287.302 161.245C287.302 152.937 280.567 146.202 272.259 146.202C263.952 146.202 257.217 152.937 257.217 161.245C257.217 169.552 263.952 176.287 272.259 176.287Z" fill="#00090C"/>
<path d="M314.679 176.287C322.987 176.287 329.722 169.552 329.722 161.245C329.722 152.937 322.987 146.202 314.679 146.202C306.371 146.202 299.637 152.937 299.637 161.245C299.637 169.552 306.371 176.287 314.679 176.287Z" fill="#00090C"/>
<path d="M876.271 313.813V558.698C876.27 563.948 875.236 569.145 873.227 573.995C871.217 578.844 868.273 583.25 864.561 586.961C860.849 590.673 856.442 593.616 851.592 595.625C846.742 597.633 841.545 598.666 836.295 598.666H707.752C705.618 597.355 703.419 596.153 701.165 595.063C663.866 506.601 586.843 507.212 530.284 516.852C481.763 525.106 453.702 582.534 446.708 598.685H304.91C294.309 598.685 284.143 594.474 276.646 586.979C269.15 579.484 264.937 569.318 264.935 558.717V313.832C264.934 308.582 265.966 303.382 267.975 298.531C269.983 293.68 272.927 289.272 276.639 285.558C280.352 281.845 284.759 278.9 289.61 276.89C294.46 274.88 299.66 273.846 304.91 273.846H836.288C841.538 273.844 846.736 274.877 851.587 276.885C856.438 278.893 860.845 281.836 864.558 285.548C868.271 289.259 871.216 293.666 873.226 298.516C875.235 303.365 876.27 308.564 876.271 313.813Z" fill="white"/>
<path d="M754.553 323.377C784.704 323.377 809.145 298.935 809.145 268.785C809.145 238.634 784.704 214.193 754.553 214.193C724.403 214.193 699.961 238.634 699.961 268.785C699.961 298.935 724.403 323.377 754.553 323.377Z" fill="#CCB909"/>
<path d="M755.176 295.624L722.608 270.642L725.456 266.929L753.931 288.771L776.798 252.068L780.773 254.544L755.176 295.624Z" fill="white"/>
<path d="M808.026 426.817C791.943 433.055 778.844 433.507 769.079 428.154C757.94 422.045 753.938 409.638 750.404 398.692C747.032 388.236 743.847 378.364 734.951 375.619C724.507 372.4 715.554 381.724 706.07 391.596C696.586 401.467 685.75 412.758 672.378 412.223C661.641 411.802 649.42 403.821 639.689 390.874C627.654 374.856 622.224 355.087 625.82 340.512C629.366 326.194 641.565 315.792 650.475 308.198C658.126 301.676 663.654 296.96 661.136 291.964C659.101 287.92 653.923 288 642.556 288.167C639.985 288.209 637.069 288.254 633.77 288.262C628.348 288.277 622.936 288.191 617.532 288.004V282.939H553.748V228.787H427.395C362.339 228.787 308.775 277.954 301.812 341.168H279.981V355.159H301.038C301.038 424.942 357.608 481.512 427.395 481.512H553.751V427.345H617.535V412.318H553.751V297.981H617.535V292.7C622.939 292.885 628.356 292.968 633.785 292.951C637.107 292.951 640.046 292.894 642.631 292.856C650.225 292.734 656.242 292.643 656.96 294.071C657.826 295.783 652.066 300.692 647.442 304.637C638.049 312.644 625.19 323.62 621.279 339.388C617.285 355.52 622.908 376.326 635.953 393.68C646.679 407.952 659.872 416.415 672.2 416.893C687.671 417.508 699.243 405.457 709.449 394.834C718.272 385.65 725.896 377.719 733.573 380.088C740.145 382.115 742.837 390.461 745.954 400.123C749.751 411.893 754.064 425.249 766.836 432.25C772.045 435.106 777.993 436.533 784.68 436.533C792.148 436.533 800.516 434.749 809.719 431.176L808.026 426.817Z" fill="#00090C"/>
<path d="M780.773 509.027L765.689 546.029L730.649 451.264L826.318 474.728L799.244 498.647L826.318 518.051L809.146 536.101L780.773 509.027Z" fill="#00090C"/>
<path d="M351.734 930.836L349.624 928.988C353.675 924.359 364.662 903.011 364.772 902.791L367.27 904.074C366.815 904.97 356.01 925.95 351.734 930.836Z" fill="#00090C"/>
<path d="M923.251 843.794C860.363 938.616 817.297 935.024 817.297 935.024V1021.68H430.208C527.239 997.73 668.308 958.214 796.772 904.537C798.439 907.764 808.086 926.299 812.077 930.848L814.191 928.995C810.539 924.819 801.237 907.054 799.384 903.451C842.898 885.174 884.923 865.26 923.251 843.794Z" fill="#D83587"/>
<path d="M814.192 928.987L812.077 930.84C808.087 926.284 798.439 907.756 796.773 904.529L796.537 904.077L799.039 902.798C799.039 902.817 799.168 903.041 799.366 903.443C801.237 907.046 810.539 924.819 814.192 928.987Z" fill="#00090C"/>
</svg>
