<svg width="1118" height="1012" viewBox="0 0 1118 1012" fill="none" xmlns="http://www.w3.org/2000/svg">
<path d="M552.043 924.65C552.873 924.65 553.546 923.235 553.546 921.491C553.546 919.746 552.873 918.332 552.043 918.332C551.214 918.332 550.541 919.746 550.541 921.491C550.541 923.235 551.214 924.65 552.043 924.65Z" fill="black"/>
<path d="M482.166 656.977C481.352 657.52 480.538 658.039 479.7 658.54C407.628 702.42 261.144 617.689 257.517 615.573C257.491 615.561 257.468 615.545 257.447 615.526C248.843 621.342 239.804 626.487 230.41 630.914C195.591 647.477 137.25 663.155 117.814 595.889C111.637 574.497 112.395 557.143 117.346 543.08C135.187 492.611 207.249 484.58 207.249 484.58C253.066 454.015 248.7 353.69 248.7 353.69C364.338 329.686 434.15 231.514 434.15 231.514C434.15 231.514 527.97 342.785 556.33 425.687C584.691 508.588 554.159 609.002 482.166 656.977Z" fill="#FCBAB9"/>
<path d="M434.163 231.537C434.163 231.537 364.352 329.709 248.714 353.713C248.714 353.713 253.08 454.038 207.263 484.603C207.263 484.603 135.191 492.611 117.36 543.103C84.0012 507.933 -8.7658 395.683 32.7177 273.011C82.9014 124.622 255.266 150.83 255.266 150.83C255.266 150.83 357.805 46.1061 418.893 94.1088C479.981 142.112 434.163 231.537 434.163 231.537Z" fill="black"/>
<path d="M468.646 776.317C467.242 779.509 465.683 782.654 463.966 785.705C434.87 838.06 375.252 900.623 213.796 755.164C213.796 737.707 246.514 707.161 246.514 707.161L230.392 630.914C239.785 626.487 248.824 621.342 257.428 615.526C257.449 615.545 257.473 615.561 257.498 615.573C261.439 618.662 434.416 754.082 468.646 776.317Z" fill="#FCBAB9"/>
<path d="M853.07 1001.69H730.482L468.646 776.317C491.578 724.837 479.7 658.54 479.7 658.54C504.701 665.406 512.666 631.658 608.709 646.073C739.613 665.701 853.07 1001.69 853.07 1001.69Z" fill="#30BFD6"/>
<path d="M730.482 1001.69H0C39.2699 739.888 213.815 755.164 213.815 755.164C375.275 900.623 434.889 838.06 463.985 785.705C465.683 782.654 467.232 779.509 468.665 776.317L730.482 1001.69Z" fill="#3BCEEF"/>
<path d="M400.046 438.376C407.378 435.624 409.547 423.334 404.89 410.924C400.233 398.515 390.514 390.686 383.182 393.438C375.849 396.189 373.68 408.48 378.337 420.889C382.994 433.298 392.713 441.127 400.046 438.376Z" fill="black"/>
<path d="M505.691 382.197C512.918 380.075 515.818 368.279 512.169 355.849C508.52 343.419 499.704 335.062 492.477 337.184C485.25 339.305 482.35 351.102 485.999 363.532C489.647 375.962 498.464 384.318 505.691 382.197Z" fill="black"/>
<path d="M468.646 776.317C434.416 754.082 261.439 618.662 257.517 615.554C261.158 617.67 407.647 702.401 479.7 658.522C479.7 658.54 491.555 724.856 468.646 776.317Z" fill="#EAA4A4"/>
<path d="M1082.15 1011.15H897.427L933.791 755.154C933.791 755.154 871.247 695.62 874.154 615.554C877.06 535.489 863.975 467.484 897.427 451.315C930.88 435.145 964.351 451.315 964.351 451.315C964.351 451.315 1010.89 398.744 1041.44 484.58C1041.44 484.58 1064.71 494.782 1070.53 525.324C1070.53 525.324 1090.89 541.325 1090.89 561.688C1090.89 561.688 1117.1 571.984 1117.1 615.554C1117.1 659.125 1098.19 742.046 1079.28 769.681L1082.15 1011.15Z" fill="#FCBAB9"/>
<path d="M897.427 1011.15L933.786 755.154C933.786 755.154 871.247 695.62 874.154 615.554C877.06 535.489 863.975 467.479 897.427 451.315C913.367 443.611 929.284 443.246 941.602 444.978C940.042 453.714 938.692 462.734 937.553 472.038C937.179 475.083 936.828 478.156 936.5 481.257C923.481 495.096 903.74 520.288 907.484 542.598C908.378 547.924 910.293 554.485 914.341 555.482C919.554 556.76 927.913 549.239 932.962 543.197C932.906 547.843 932.895 552.534 932.93 557.27C929.602 566.003 927.314 577.16 933.529 583.642C933.616 586.138 933.725 588.66 933.856 591.209C936.355 643.7 943.876 700.342 956.83 758.659C978.677 856.968 1012.47 944.395 1051.42 1011.13L897.427 1011.15Z" fill="#EAA4A4"/>
<path d="M1040.95 663.291C1022.92 669.941 1008.73 673.268 998.188 673.268C989.399 673.268 983.156 670.961 979.332 666.333C972.363 657.909 976.093 644.07 980.053 634.579C979.739 634.705 979.421 634.827 979.093 634.939C972.803 637.157 962.564 637.747 949.544 627.994C942.814 622.94 939.398 616.987 939.398 610.313C939.398 604.669 941.887 599.409 944.906 595.098C941.209 595.042 937.507 593.75 933.866 591.251C932.669 590.431 931.527 589.532 930.449 588.56C921.398 580.412 923.458 567.032 927.173 556.643C922.774 559.858 917.729 562.165 913.021 561.009C907.377 559.633 903.661 553.76 901.925 543.567C897.161 515.215 924.88 484.468 937.572 472.08C940.895 468.804 943.188 466.843 943.6 466.492C943.883 466.25 944.21 466.066 944.564 465.95C944.917 465.834 945.29 465.789 945.661 465.818C946.032 465.846 946.394 465.948 946.725 466.116C947.057 466.284 947.352 466.516 947.595 466.798C947.837 467.081 948.021 467.408 948.137 467.762C948.252 468.115 948.297 468.488 948.269 468.859C948.24 469.23 948.139 469.592 947.971 469.923C947.802 470.255 947.57 470.551 947.288 470.793C947.143 470.915 942.547 474.888 936.524 481.299C923.504 495.138 903.764 520.331 907.508 542.64C908.402 547.966 910.316 554.527 914.364 555.524C919.578 556.802 927.936 549.281 932.986 543.239C933.515 542.607 934.002 541.985 934.456 541.395C934.666 541.088 934.934 540.825 935.246 540.622C935.558 540.418 935.907 540.278 936.273 540.209C936.639 540.141 937.014 540.145 937.379 540.221C937.743 540.298 938.089 540.446 938.396 540.656C938.703 540.866 938.966 541.135 939.17 541.446C939.373 541.758 939.513 542.107 939.582 542.473C939.651 542.839 939.647 543.215 939.57 543.579C939.493 543.943 939.346 544.289 939.136 544.596C936.705 548.64 934.628 552.887 932.93 557.289C929.602 566.021 927.314 577.179 933.529 583.66C933.744 583.885 933.997 584.128 934.217 584.325C938.302 588.003 942.294 589.702 946.109 589.384C948.003 589.207 949.828 588.583 951.435 587.563C952.678 586.359 953.989 585.226 955.361 584.17C955.901 583.7 956.6 583.454 957.315 583.482C958.031 583.51 958.708 583.81 959.21 584.321C959.711 584.832 959.999 585.515 960.013 586.231C960.028 586.947 959.768 587.641 959.288 588.172C958.054 589.65 956.61 590.938 955.001 591.995C950.938 595.945 945.032 602.961 945.042 610.299C945.042 615.096 947.7 619.523 952.927 623.445C973.552 638.912 984.878 624.61 985.341 624.002C985.761 623.381 986.411 622.953 987.147 622.811C987.883 622.67 988.645 622.826 989.265 623.246C989.886 623.666 990.314 624.316 990.456 625.052C990.598 625.788 990.441 626.55 990.021 627.17C985.809 634.115 976.515 654.048 983.689 662.738C988.215 668.214 1001.47 671.832 1038.98 657.983C1039.69 657.723 1040.47 657.754 1041.15 658.067C1041.83 658.381 1042.36 658.953 1042.62 659.657C1042.88 660.36 1042.85 661.139 1042.53 661.82C1042.22 662.502 1041.65 663.031 1040.94 663.291H1040.95Z" fill="black"/>
<path d="M993.199 766.962C967.23 729.99 974.353 696.72 974.666 695.32L980.184 696.561C980.114 696.883 973.37 728.899 997.827 763.714L993.199 766.962Z" fill="black"/>
<path d="M938.696 425.982C935.744 427.913 932.719 429.776 929.621 431.57C830.194 488.984 697.053 444.524 632.24 332.265C567.426 220.006 595.502 82.5025 694.938 25.0742C698.012 23.3005 701.139 21.6157 704.298 20.0432C621.635 75.0473 604.665 203.232 667.438 311.958C730.211 420.684 849.733 470.091 938.696 425.982Z" fill="black"/>
<path d="M994.49 128.226C993.779 126.941 993.055 125.658 992.319 124.379C991.584 123.102 990.835 121.824 990.077 120.57C926.532 14.5677 801.389 -28.9189 704.284 20.0433C621.621 75.0473 604.651 203.233 667.424 311.958C730.197 420.684 849.733 470.091 938.695 425.982C1029.63 366.34 1054.52 236.255 994.49 128.226ZM923.682 394.373C847.187 438.538 741.953 399.488 688.648 307.152C635.342 214.816 654.133 104.166 730.627 60.0011C807.122 15.8359 912.338 54.8905 965.69 147.222C1019.04 239.554 1000.17 350.199 923.682 394.373Z" fill="#111111"/>
<path d="M923.682 394.373C847.187 438.538 741.953 399.488 688.648 307.152C635.342 214.815 654.133 104.166 730.627 60.0009C807.122 15.8358 912.338 54.8904 965.69 147.222C1019.04 239.554 1000.17 350.198 923.682 394.373Z" fill="#D6D6D6"/>
<path d="M844.379 188.168C860.72 188.168 873.966 174.921 873.966 158.581C873.966 142.24 860.72 128.994 844.379 128.994C828.039 128.994 814.792 142.24 814.792 158.581C814.792 174.921 828.039 188.168 844.379 188.168Z" fill="#F7F7F7"/>
</svg>
