<svg width="1252" height="1252" viewBox="0 0 1252 1252" fill="none" xmlns="http://www.w3.org/2000/svg">
<path d="M797.416 302.341C815.499 345.573 747.148 358.648 747.148 358.648L732.837 325.77H573.283L557.111 365.809V422.984C557.111 422.984 548.948 410.347 540.251 405.185L537.404 351.662L514.868 335.523C472.638 304.336 509.831 268.141 509.831 268.141C488.714 199.761 550.058 201.785 550.058 201.785C555.078 144.46 628.504 168.603 628.504 168.603C649.621 126.373 694.86 161.562 694.86 161.562C799.419 119.357 771.265 223.916 771.265 223.916C820.532 236.991 797.416 302.341 797.416 302.341Z" fill="black"/>
<path d="M734.089 477.3C727.52 505.795 720.451 524.505 711.97 536.891C707.935 542.805 703.624 547.274 698.866 550.717C683.007 562.227 662.704 562.135 634.551 564.765C619.314 566.171 605.271 558.788 592.943 547.462C583.761 539.019 575.553 528.415 568.512 517.56C551.247 491.03 541.018 463.223 541.018 463.223C541.018 463.223 514.897 431.034 524.938 409.917C528.878 401.629 534.666 401.846 540.267 405.193C548.964 410.356 557.127 422.992 557.127 422.992V365.818L573.299 325.779H732.837L747.164 358.656L745.132 427.036C749.163 420 770.28 394.847 772.283 430.041C774.287 465.235 734.089 477.3 734.089 477.3Z" fill="#FCBAB9"/>
<path d="M711.946 536.883V607.984C696.834 642.768 661.448 662.73 627.515 657.254C586.316 650.623 569.301 610.095 568.487 607.984V517.548C575.524 528.398 583.753 539.007 592.918 547.454C605.242 558.78 619.289 566.163 634.522 564.752C662.675 562.127 682.979 562.219 698.837 550.709C703.591 547.266 707.91 542.792 711.946 536.883Z" fill="#EAA4A4"/>
<path d="M1093.02 1054.44C1081.22 1084.9 1056.32 1133.46 999.922 1180.59C973.084 1169.84 928.821 1162.2 876.3 1156.85L879.638 1138.43L937.164 821.17L372.069 829.208L395.44 1129.27L396.784 1146.57C350.239 1146.6 311.447 1163.3 288.081 1176.48C211.346 1137.22 179.72 1087.79 166.958 1063.49C71.5184 881.738 239.374 597.951 402.259 559.723C444.552 549.807 520.473 548.497 568.491 547.683V607.992C569.326 610.079 586.32 650.631 627.519 657.262C661.461 662.738 696.838 642.777 711.95 607.992V551.489C786.523 556.08 831.758 558.872 860.754 565.754C1012.56 601.853 1169.06 857.708 1093.02 1054.44Z" fill="#F84C01"/>
<path d="M568.487 547.675V571.784C377.991 636.926 241.945 808.625 241.945 1010.19C241.908 1063.76 251.646 1116.89 270.682 1166.97C206.45 1129.54 178.706 1085.86 166.954 1063.47C71.514 881.721 239.37 597.934 402.255 559.707C444.547 549.799 520.469 548.489 568.487 547.675Z" fill="#E54210"/>
<path d="M999.93 1180.59C995.302 1184.48 990.486 1188.32 985.416 1192.17C762.877 1191.51 540.339 1190.84 317.803 1190.17C307.231 1185.79 297.325 1181.22 288.085 1176.47C311.456 1163.3 350.243 1146.59 396.788 1146.56L398.228 1165.02H874.822L876.295 1156.85C928.821 1162.2 973.083 1169.84 999.93 1180.59Z" fill="black"/>
<path d="M937.172 821.17L879.647 1138.43L876.3 1156.85L874.827 1165.02H398.219L396.78 1146.56L395.436 1129.26L372.069 829.208L937.172 821.17Z" stroke="black" stroke-miterlimit="10"/>
<path d="M937.172 821.17L879.647 1138.43L395.436 1129.26L372.069 829.208L937.172 821.17Z" stroke="black" stroke-miterlimit="10"/>
<path d="M398.332 1126.19L375.45 832.288L933.416 824.354L877.043 1135.25L398.332 1126.19Z" fill="#D6D6D6"/>
<path d="M879.647 1138.43L876.3 1156.85L874.827 1165.02H398.22L396.78 1146.56L395.436 1129.26L879.647 1138.43Z" fill="black"/>
<path d="M643.557 1010.19C670.953 1010.19 693.162 987.98 693.162 960.584C693.162 933.189 670.953 910.98 643.557 910.98C616.162 910.98 593.953 933.189 593.953 960.584C593.953 987.98 616.162 1010.19 643.557 1010.19Z" fill="#CCB909"/>
<path d="M244.804 1041.99L241.945 1040.72C242.337 1039.84 282.313 952.985 384.819 985.399L383.876 988.379C284.091 956.841 245.188 1041.14 244.804 1041.99Z" fill="black"/>
<path d="M442.924 831.353C442.891 830.155 438.872 711.704 395.094 702.026L395.774 698.971C441.91 709.175 445.908 826.278 446.054 831.265L442.924 831.353Z" fill="black"/>
<path d="M819.084 822.91L815.954 822.835C815.954 822.001 818.433 739.59 858.634 699.392L860.846 701.604C821.538 740.909 819.1 822.097 819.084 822.91Z" fill="black"/>
<path d="M1008.72 1042.08C1008.34 1041.36 969.837 970.217 906.561 994.551L905.434 991.63C971.327 966.285 1011.1 1039.88 1011.49 1040.62L1008.72 1042.08Z" fill="black"/>
<path d="M600.104 422.997C605.657 422.997 610.158 413.542 610.158 401.88C610.158 390.217 605.657 380.762 600.104 380.762C594.552 380.762 590.051 390.217 590.051 401.88C590.051 413.542 594.552 422.997 600.104 422.997Z" fill="black"/>
<path d="M688.588 422.997C694.14 422.997 698.641 413.542 698.641 401.88C698.641 390.217 694.14 380.762 688.588 380.762C683.035 380.762 678.534 390.217 678.534 401.88C678.534 413.542 683.035 422.997 688.588 422.997Z" fill="black"/>
<path d="M397.368 269.167L298.131 98.6326L235.823 210.136L397.368 269.167Z" fill="black"/>
<path d="M424.315 235.823L384.819 59.8289L475.38 83.1996L424.315 235.823Z" fill="black"/>
<path d="M620.216 999.705C620.955 999.705 621.555 998.444 621.555 996.888C621.555 995.333 620.955 994.071 620.216 994.071C619.476 994.071 618.876 995.333 618.876 996.888C618.876 998.444 619.476 999.705 620.216 999.705Z" fill="black"/>
</svg>
