<svg width="1252" height="1252" viewBox="0 0 1252 1252" fill="none" xmlns="http://www.w3.org/2000/svg">
<path d="M1036.28 1126.8L1036.25 1126.8V1126.8H1036.28Z" fill="black"/>
<path d="M407.196 1127.99L404.075 1127.54C404.075 1127.39 404.125 1127.23 404.146 1127.07C405.168 1127.39 406.195 1127.7 407.196 1127.99Z" fill="black"/>
<path d="M298.727 85.8079L337.489 393.75L342.213 431.523L344.609 450.432H1009.09L1009.78 431.523L1011.1 393.771L1022.64 72.278L298.727 85.8079ZM1004.86 393.75H343.857L305.851 91.9844L1016.08 78.6882L1004.86 393.75Z" fill="black"/>
<path d="M1016.08 78.6882L1004.86 393.75H343.858L305.851 91.9845L1016.08 78.6882Z" fill="#D6D6D6"/>
<path d="M591.779 669.928C591.779 669.928 586.045 673.584 588.064 685.432H335.156L354.066 564.297L609.507 554.636C570.812 593.031 591.779 597.575 591.779 669.928Z" fill="#111111"/>
<path d="M826.249 685.432C828.014 678.371 825.181 674.528 814.146 677.303C814.021 677.365 813.892 677.365 813.767 677.428C812.932 677.678 812.193 677.87 811.563 677.996C811.563 677.996 881.458 564.927 809.167 547.153L849.06 545.642L879.442 685.449L826.249 685.432Z" fill="#111111"/>
<path d="M778.164 470.335C778.164 495.546 732.783 515.966 676.881 515.966C620.917 515.966 575.599 495.546 575.599 470.335C575.599 463.211 579.255 456.467 585.748 450.42H767.952C774.508 456.396 778.164 463.202 778.164 470.335Z" fill="black"/>
<path d="M468.899 665.83L453.9 812.047C407.384 830.911 367.992 856.368 340.577 887.998C325.074 905.83 313.351 925.62 306.356 947.301C301.254 963.057 298.679 979.521 298.727 996.083C298.727 1026.65 306.924 1050.54 319.594 1069.25C272.577 1046.19 261.167 1002.32 258.396 947.743C257.516 929.798 257.516 910.621 257.516 890.706C257.516 889.821 257.516 888.878 257.578 887.998C260.036 788.856 395.298 649.634 395.298 649.634C395.298 649.634 384.143 619.256 379.602 597.467C375.062 575.678 407.981 616.247 407.981 616.247V583.278C407.981 557.499 432.312 604.562 432.312 604.562C432.312 604.562 443.905 587.355 464.2 572.669C483.99 558.3 462.184 620.445 461.237 623.216C461.996 622.586 468.749 617.374 486.448 608.468C505.328 599.024 468.899 665.83 468.899 665.83Z" fill="#FCBAB9"/>
<path d="M453.003 951.073C452.677 952.096 420.997 1054.37 410.31 1128.44L407.196 1127.99C406.195 1127.7 405.168 1127.39 404.146 1127.07C414.963 1052.54 446.663 950.23 446.976 949.204L453.003 951.073Z" fill="black"/>
<path d="M1039.35 1126.25L1036.3 1126.8H1036.24L1033.15 1127.34C1018.07 1043.4 996.308 985.115 971.877 963.255L976.051 958.552C1008.74 987.778 1028.52 1065.87 1039.35 1126.25Z" fill="black"/>
<path d="M1130.66 1012.28C1129.72 1043.79 1123.15 1067.18 1112.89 1084.32C1095.07 1114.18 1066.09 1125.09 1036.3 1126.8L1039.35 1126.25C1028.5 1065.87 1008.74 987.778 976.08 958.56L971.907 963.264C996.337 985.124 1018.1 1043.39 1033.18 1127.35L1036.24 1126.8C1041.73 1157.48 1044.19 1179.74 1044.19 1179.74H404.05C402.91 1166.06 404.296 1147.97 407.196 1127.99L410.31 1128.44C420.997 1054.37 452.677 952.092 453.003 951.069L446.976 949.2C446.663 950.226 414.963 1052.54 404.146 1127.07C375.692 1118.22 341.128 1101.37 319.594 1069.25C306.928 1050.54 298.727 1026.64 298.727 996.074C298.683 979.515 301.256 963.053 306.352 947.297C313.35 925.616 325.073 905.83 340.573 887.989C367.988 856.351 407.376 830.886 453.896 812.035C505.445 791.168 565.766 778.439 628.22 774.541C629.86 774.408 631.559 774.349 633.257 774.283C633.257 774.283 709.771 858.859 782.446 781.599C860.487 792.182 942.848 813.366 1007.81 847.082C1031 859.118 1051.92 872.727 1069.7 887.981C1087.85 903.552 1102.72 920.884 1113.18 940.039C1125.13 961.732 1131.42 985.741 1130.66 1012.28Z" fill="#F84C01"/>
<path d="M826.249 685.432C821.462 704.592 782.45 747.891 782.45 747.891V781.607C709.78 858.876 633.266 774.299 633.266 774.299L628.224 746.881C599.299 715.998 590.03 696.901 588.081 685.432C586.061 673.584 591.795 669.929 591.795 669.929C591.795 669.929 599.549 674.782 609.507 685.432C620.358 696.901 633.963 714.988 643.415 740.829C649.717 757.848 665.409 768.686 683.897 773.602C696.942 777.196 711.441 777.826 724.929 775.622C747.995 771.904 768.29 760.118 774.149 740.829C783.289 710.706 791.923 693.942 799.673 685.432C803.963 680.704 807.932 678.563 811.588 677.996C812.218 677.87 812.974 677.678 813.792 677.428C813.917 677.365 814.046 677.365 814.171 677.303C825.181 674.528 828.014 678.371 826.249 685.432Z" fill="#FCBAB9"/>
<path d="M811.567 677.996C807.911 678.563 803.942 680.704 799.652 685.432C791.902 693.942 783.268 710.706 774.128 740.829C768.285 760.118 747.974 771.904 724.908 775.622C710.789 774.55 697.113 773.92 683.876 773.602C665.409 768.686 649.717 757.848 643.394 740.829C633.942 714.988 620.328 696.901 609.486 685.432C599.528 674.782 591.774 669.928 591.774 669.928C591.774 597.575 570.791 593.035 609.486 554.653C614.152 550.116 619.636 545.012 626.179 539.211C686.997 485.58 752.798 548.351 752.798 548.351C777.375 543.76 795.717 543.76 809.138 547.153C881.462 564.927 811.567 677.996 811.567 677.996Z" fill="black"/>
<path d="M1196.84 936.65C1196.84 937.531 1196.77 938.416 1196.71 939.296C1193.25 1024.32 1156.44 1082.24 1112.89 1084.32C1123.16 1067.18 1129.72 1043.79 1130.66 1012.28C1131.42 985.746 1125.12 961.732 1113.2 940.052C1102.74 920.892 1087.87 903.56 1069.72 887.998C1051.94 872.744 1031.02 859.131 1007.83 847.099C996.417 799.644 977.261 715.944 978.709 692.185C978.709 692.185 945.368 657.129 940.769 638.424C940.345 637.036 940.154 635.588 940.202 634.138C940.895 617.244 975.371 640.882 975.371 640.882C975.371 640.882 974.674 599.662 957.091 599.032C939.563 598.339 957.279 578.8 978.079 587.434C976.693 586.111 959.424 568.717 983.438 572.686C986.888 573.235 990.299 574.015 993.646 575.019C1018.35 582.393 1050.24 604.199 1054.34 658.402C1054.34 658.402 1165.35 777.079 1191.42 888.006C1195.33 904.507 1197.33 920.892 1196.84 936.65Z" fill="#FCBAB9"/>
<path d="M950.147 595.998C951.914 596.888 953.689 597.852 955.472 598.89C952.355 598.506 950.685 597.413 950.147 595.998Z" fill="#FCBAB9"/>
<path d="M1137.1 1077.11C1129.4 1081.45 1121.27 1083.91 1112.9 1084.32C1123.17 1067.18 1129.73 1043.79 1130.67 1012.28C1131.43 985.746 1125.13 961.732 1113.22 940.052C1102.76 920.896 1087.88 903.564 1069.73 887.993C1051.96 872.74 1031.03 859.131 1007.84 847.095C996.433 799.636 977.269 715.939 978.726 692.181C978.726 692.181 945.381 657.125 940.778 638.411C940.355 637.025 940.164 635.578 940.21 634.13C940.911 617.236 975.383 640.87 975.383 640.87C975.383 640.87 975.02 619.586 968.288 607.374C1019.53 645.418 1073.94 734.632 1108.35 845.993C1135.31 933.27 1144.45 1016.26 1137.1 1077.11Z" fill="#FCBAB9"/>
<path d="M978.079 587.426C957.279 578.791 939.572 598.331 957.092 599.024C974.674 599.654 975.371 640.874 975.371 640.874C975.371 640.874 940.895 617.236 940.202 634.13C940.154 635.58 940.346 637.028 940.77 638.416C937.927 635.315 935.433 631.911 933.333 628.266C928.037 619.085 925.453 609.111 925.453 599.779C925.441 598.284 925.525 596.79 925.704 595.305C925.693 594.989 925.714 594.673 925.766 594.362C925.897 592.897 926.13 591.442 926.463 590.009C926.526 589.696 926.589 589.379 926.651 589.129C926.886 588.042 927.18 586.969 927.532 585.915C927.614 585.477 927.763 585.055 927.974 584.663C927.978 584.488 928.021 584.315 928.099 584.158C928.479 583.086 928.934 582.013 929.351 581.007C930.01 579.601 930.747 578.233 931.559 576.909C933.162 574.303 935.089 571.911 937.293 569.789C937.343 569.675 937.434 569.584 937.548 569.535C938.554 568.654 939.689 567.711 940.824 566.889C935.183 560.955 928.952 555.612 922.228 550.943C908.113 541.173 896.265 537.392 886.683 534.37C877.418 531.407 870.044 529.074 865.399 522.518C856.134 509.284 862.686 485.651 885.431 450.42H893.056C870.557 484.324 862.808 507.836 870.557 518.862C873.963 523.712 880.156 525.665 888.645 528.377C898.544 531.528 910.893 535.435 925.829 545.772C933.314 550.969 940.223 556.948 946.441 563.609C946.474 563.573 946.518 563.55 946.566 563.546C947.364 563.177 948.185 562.86 949.024 562.599C949.291 562.466 949.571 562.361 949.859 562.286C950.355 562.108 950.861 561.96 951.374 561.843C952.294 561.522 953.243 561.29 954.208 561.151C955.206 560.942 956.217 560.795 957.233 560.708C958.469 560.582 959.71 560.519 960.952 560.52C966.849 560.558 972.671 561.847 978.033 564.301C980.871 565.564 983.591 567.078 986.159 568.825C988.859 570.633 991.376 572.701 993.671 575.002C990.324 573.998 986.914 573.219 983.463 572.669C959.424 568.708 976.694 586.103 978.079 587.426Z" fill="black"/>
<path d="M238.297 659.779C238.297 659.779 205.082 724.253 179.036 756.713L157.986 734.653C173.552 695.073 206.893 640.874 206.893 640.874L211.622 643.707L218.942 648.119L224.676 651.583L232.113 656.048L238.297 659.779Z" fill="black"/>
<path d="M179.036 756.713C168.185 770.264 158.553 778.268 153.195 773.602C147.398 768.561 150.737 753.245 157.986 734.653L179.036 756.713Z" fill="#CCB909"/>
<path d="M231.925 619.761L218.942 648.123L211.63 643.707L226.879 614.465L231.925 619.761Z" fill="#CCB909"/>
<path d="M242.575 636.713L232.113 656.061L224.676 651.587L236.778 632.677L242.575 636.713Z" fill="#CCB909"/>
<path d="M750.966 220.006C744.665 220.006 739.118 222.965 735.337 227.518C733.648 221.507 730.705 215.921 726.703 211.129C701.746 180.814 640.482 175.656 637.898 175.459L634.497 175.205V194.06L582.689 192.169L582.501 198.471L634.497 200.424V274.835L596.24 269.18L595.293 275.419L634.497 281.22V314.431L637.898 314.118C641.492 313.801 721.912 305.801 735.212 252.921C737.084 255.312 739.475 257.247 742.204 258.579C744.933 259.911 747.929 260.606 750.966 260.612C753.632 260.612 756.271 260.087 758.733 259.067C761.195 258.047 763.433 256.552 765.317 254.668C767.202 252.783 768.697 250.546 769.716 248.084C770.736 245.621 771.261 242.982 771.261 240.317C771.261 237.652 770.736 235.013 769.716 232.551C768.697 230.088 767.202 227.851 765.317 225.967C763.433 224.082 761.195 222.587 758.733 221.567C756.271 220.547 753.632 220.022 750.966 220.022V220.006ZM730.421 244.395C724.75 292.926 656.933 305.15 640.799 307.412V182.124C653.97 183.639 701.805 190.763 721.786 215.152C728.781 223.599 731.681 233.431 730.421 244.395ZM750.966 254.29C748.199 254.287 745.495 253.464 743.196 251.925C740.896 250.386 739.105 248.2 738.047 245.643C736.99 243.086 736.715 240.272 737.256 237.559C737.797 234.845 739.131 232.353 741.089 230.397C743.046 228.442 745.54 227.11 748.254 226.571C750.968 226.032 753.781 226.31 756.337 227.37C758.893 228.429 761.078 230.223 762.615 232.523C764.152 234.824 764.972 237.529 764.972 240.296C764.97 244.009 763.493 247.569 760.867 250.193C758.24 252.817 754.679 254.291 750.966 254.29Z" fill="black"/>
<path d="M764.972 240.296C764.973 243.064 764.153 245.77 762.616 248.072C761.079 250.373 758.894 252.168 756.337 253.227C753.78 254.287 750.966 254.565 748.251 254.025C745.537 253.486 743.043 252.153 741.086 250.197C739.128 248.24 737.795 245.747 737.255 243.032C736.715 240.317 736.991 237.504 738.05 234.947C739.109 232.389 740.903 230.204 743.204 228.666C745.505 227.128 748.211 226.307 750.979 226.307C752.817 226.303 754.639 226.662 756.338 227.363C758.037 228.065 759.582 229.095 760.882 230.395C762.182 231.694 763.213 233.238 763.915 234.937C764.617 236.637 764.976 238.458 764.972 240.296Z" fill="#CCB909"/>
<path d="M154.196 110.101L55.0879 145.232C55.0879 145.232 244.557 288.377 233.544 282.952C222.53 277.527 154.196 110.101 154.196 110.101Z" fill="black"/>
<path d="M60.8306 222.18L55.9478 280.97L183.447 316.305L60.8306 222.18Z" fill="black"/>
<path d="M638.102 1147.95C517.956 1061.35 444.785 938.896 430.967 822.172C394.426 839.7 363.359 861.702 340.59 887.994C325.086 905.835 313.363 925.62 306.368 947.301C301.273 963.057 298.699 979.519 298.744 996.079C298.744 1026.65 306.944 1050.54 319.61 1069.25C341.141 1101.39 375.708 1118.22 404.162 1127.07C414.979 1052.54 446.68 950.23 446.993 949.204L453.019 951.073C452.694 952.096 421.014 1054.37 410.326 1128.44L407.213 1127.99C404.291 1147.98 402.927 1166.07 404.066 1179.74H687.327C670.387 1169.99 653.957 1159.38 638.102 1147.95Z" fill="#E54210"/>
<path d="M306.356 947.301C311.811 930.39 320.153 914.636 330.916 900.059C335.778 861.944 344.626 820.836 357.625 778.719C384.08 693.09 422.366 620.55 461.959 574.317C443.037 588.611 432.282 604.57 432.282 604.57C432.282 604.57 407.952 557.491 407.952 583.286V616.255C407.952 616.255 375.053 575.728 379.573 597.475C384.093 619.223 395.269 649.642 395.269 649.642C395.269 649.642 260.015 788.864 257.549 888.006C257.486 888.887 257.486 889.83 257.486 890.715C257.486 910.63 257.486 929.789 258.367 947.751C261.142 1002.33 272.556 1046.2 319.565 1069.26C306.899 1050.54 298.698 1026.66 298.698 996.091C298.659 979.525 301.243 963.058 306.356 947.301Z" fill="#EAA4A4"/>
<path d="M620.216 999.705C620.955 999.705 621.555 998.444 621.555 996.888C621.555 995.333 620.955 994.071 620.216 994.071C619.476 994.071 618.876 995.333 618.876 996.888C618.876 998.444 619.476 999.705 620.216 999.705Z" fill="black"/>
</svg>
