<svg width="1252" height="1252" viewBox="0 0 1252 1252" fill="none" xmlns="http://www.w3.org/2000/svg">
<path d="M515.665 594.053C515.665 594.053 550.784 651.228 449.447 629.176C411.578 620.934 387.602 604.42 369.837 584.221C339.993 550.317 327.723 505.954 296.908 472.643V378.3C296.908 378.3 233.707 337.151 274.839 322.102C315.971 307.053 323.016 393.345 323.016 393.345C323.016 393.345 362.137 321.105 353.114 269.935C353.114 269.935 424.357 182.613 434.406 161.541C434.406 161.541 498.626 163.57 524.726 233.815C535.121 261.777 541.052 298.627 542.521 334.902C544.737 389.756 536.807 443.266 518.699 462.606C488.572 494.74 454.48 486.707 454.48 486.707L457.481 534.942L458.478 550.926C458.49 550.927 458.502 550.931 458.513 550.936C458.524 550.942 458.533 550.95 458.541 550.959L515.665 594.053Z" fill="#FCBAB9"/>
<path d="M578.883 348.202C563.521 346.115 551.564 340.865 542.512 334.902C541.043 298.627 535.113 261.789 524.717 233.815C498.617 163.57 434.398 161.541 434.398 161.541C424.349 182.613 353.106 269.935 353.106 269.935C362.128 321.105 323.016 393.345 323.016 393.345C323.016 393.345 315.984 307.057 274.839 322.102C233.694 337.147 296.907 378.3 296.907 378.3V472.643C327.723 505.954 339.993 550.317 369.836 584.221C365.53 596.52 360.284 609.945 353.978 624.652C350.389 633.11 346.424 641.976 342.084 651.249C323.821 690.399 306.026 715.188 289.012 729.265C269.747 745.22 251.518 747.469 234.812 741.368C226.695 738.4 218.954 733.501 211.65 727.178C204.844 721.369 198.413 714.379 192.386 706.729C158.453 663.677 137.348 599.057 137.348 599.057C6.91088 550.884 89.2048 448.517 169.483 397.877C249.761 347.238 219.642 259.882 237.717 161.541C255.792 63.201 440.424 107.376 440.424 107.376C518.691 91.2959 562.836 151.521 548.789 199.69C534.742 247.858 578.883 348.202 578.883 348.202Z" fill="black"/>
<path d="M944.15 843.936C938.47 845.342 915.116 839.625 894.416 833.92C876.091 828.912 859.857 823.866 859.857 823.866C859.857 823.866 853.363 839.537 840.438 863.171L815.62 796.234C840.284 789.649 857.353 785.718 857.353 785.718C860.754 778.206 863.751 772.229 866.438 767.547C884.384 736.076 886.637 763.645 886.667 778.786C886.667 783.656 886.449 787.216 886.449 787.216C888.695 785.309 890.79 783.623 892.785 782.208C928.033 755.828 923.07 792.261 923.07 792.261C923.692 792.074 924.285 791.919 924.848 791.761C925.879 791.481 926.847 791.231 927.77 791.014C928.27 790.918 928.738 790.826 929.176 790.73C929.798 790.638 930.395 790.513 930.925 790.45C931.455 790.388 931.797 790.325 932.202 790.296C945.348 788.981 942.038 798.693 937.105 806.839C934.855 810.52 932.344 814.036 929.593 817.36C947.18 824.363 944.15 843.936 944.15 843.936Z" fill="#FCBAB9"/>
<path d="M839.157 712.096L812.373 787.508L808.617 798.092C750.081 814.013 657.421 842.863 639.221 870.148L624.389 714.112C563.421 591.107 461.737 552.115 458.553 550.934C458.546 550.925 458.536 550.917 458.525 550.911C458.514 550.906 458.503 550.902 458.491 550.901L457.493 534.917C493.517 543.126 567.882 564.731 601.661 608.439C647.15 667.283 681.927 744.489 681.927 744.489L788.764 666.252L839.157 712.096Z" fill="#F84C01"/>
<path d="M897.684 637.685C897.684 637.685 879.952 674.023 853.196 672.683L839.178 712.113L788.76 666.264L818.42 644.563C818.42 644.563 834.466 558.93 897.342 597.734C897.342 597.734 902.241 617.591 874.676 605.789C875.624 606.419 891.516 616.752 897.684 637.685Z" fill="#FCBAB9"/>
<path d="M874.655 605.793C874.639 605.775 874.617 605.765 874.593 605.763" stroke="#EAA4A4" stroke-miterlimit="10"/>
<path d="M639.2 870.161C639.167 870.19 639.138 870.253 639.104 870.286C639.071 870.32 446.513 658.085 353.978 624.652C360.284 609.945 365.53 596.52 369.837 584.221C387.603 604.42 411.57 620.946 449.447 629.176C550.784 651.249 515.665 594.053 515.665 594.053L458.533 550.943C461.717 552.128 563.4 591.119 624.368 714.12L639.2 870.161Z" fill="#E54210"/>
<path d="M976.994 607.884L852.241 759.643L840.438 753.086L954.204 599.082L976.994 607.884Z" fill="black"/>
<path d="M1182.98 687.369L1038.5 863.166L937.126 806.826C942.969 797.148 946.554 785.288 923.079 792.249C923.079 792.249 928.041 755.816 892.793 782.195L886.675 778.794C886.646 763.653 884.396 736.084 866.447 767.555L852.257 759.655L976.977 607.884L1182.98 687.369Z" fill="black"/>
<path d="M941.396 805.612C944.734 799.281 945.44 794.553 943.557 791.21C941.988 788.434 938.938 787.036 934.493 787.036C931.781 787.093 929.085 787.455 926.455 788.117C926.455 783.819 925.796 777.504 922.219 773.41C919.978 770.844 916.873 769.487 913.23 769.487C907.75 769.487 900.977 772.438 892.563 778.494L889.788 776.945C889.55 758.583 886.324 749.994 879.68 749.994C875.365 749.994 870.875 754.134 865.299 763.348L857.032 758.758L977.971 611.631L1177.82 688.746L1037.74 859.193L941.396 805.612Z" fill="#D6D6D6"/>
<path d="M1017.61 759.3C1030.74 759.3 1041.38 748.656 1041.38 735.525C1041.38 722.394 1030.74 711.75 1017.61 711.75C1004.48 711.75 993.833 722.394 993.833 735.525C993.833 748.656 1004.48 759.3 1017.61 759.3Z" fill="#CCB909"/>
<path d="M840.438 863.166C833.164 876.496 823.862 892.355 812.527 909.369C780.935 956.887 733.651 1013.36 671.197 1048.64C546.79 1118.88 420.351 1010.49 342.084 926.2C296.691 877.339 258.747 798.776 234.812 741.38C251.506 747.469 269.747 745.22 289.012 729.277C306.026 715.201 323.821 690.411 342.084 651.261C346.424 641.988 350.389 633.123 353.978 624.665C446.513 658.097 639.104 870.299 639.104 870.299C639.104 870.299 639.167 870.203 639.2 870.173C657.4 842.888 750.061 814.038 808.596 798.117C811 797.46 813.341 796.835 815.619 796.243L840.438 863.166Z" fill="#F84C01"/>
<path d="M894.416 833.915L639.2 1150.98C639.2 1150.98 544.762 1187.1 353.978 1028.57C223.386 920.016 196.385 782.65 192.391 706.758C198.417 714.408 204.848 721.398 211.655 727.208C218.958 733.513 226.7 738.413 234.817 741.397C258.734 798.776 296.695 877.356 342.071 926.217C420.338 1010.52 546.778 1118.9 671.185 1048.66C733.655 1013.38 780.943 956.904 812.515 909.386C823.849 892.371 833.152 876.513 840.426 863.183C853.363 839.549 859.844 823.879 859.844 823.879C859.844 823.879 876.091 828.887 894.416 833.915Z" fill="#E54210"/>
<path d="M428.872 319.101C437.463 319.101 444.426 307.87 444.426 294.015C444.426 280.161 437.463 268.93 428.872 268.93C420.282 268.93 413.318 280.161 413.318 294.015C413.318 307.87 420.282 319.101 428.872 319.101Z" fill="black"/>
<path d="M507.636 319.101C513.737 319.101 518.682 307.87 518.682 294.015C518.682 280.161 513.737 268.93 507.636 268.93C501.535 268.93 496.589 280.161 496.589 294.015C496.589 307.87 501.535 319.101 507.636 319.101Z" fill="black"/>
<path d="M723.723 384.894L788.059 200.479L882.318 292.684L723.723 384.894Z" fill="black"/>
<path d="M693.804 329.151V151.154L629.355 179.032L693.804 329.151Z" fill="black"/>
<path d="M620.216 999.705C620.955 999.705 621.555 998.444 621.555 996.888C621.555 995.333 620.955 994.071 620.216 994.071C619.476 994.071 618.876 995.333 618.876 996.888C618.876 998.444 619.476 999.705 620.216 999.705Z" fill="black"/>
</svg>
