<svg width="1252" height="1252" viewBox="0 0 1252 1252" fill="none" xmlns="http://www.w3.org/2000/svg">
<path d="M405.69 417.546H348.515L344.467 404.3L299.52 433.651C299.52 433.651 285.748 413.736 268.88 435.179C252.011 456.621 280.365 472.68 280.365 472.68L300.522 557.453C291.804 559.502 279.509 559.648 265.357 558.551H265.307C241.861 556.739 213.462 551.498 188.493 546.064C154.514 538.681 126.924 530.911 126.924 530.911C104.479 420.597 198.405 314.315 198.405 314.315C198.405 314.315 57.4961 330.77 124.925 257.244C192.353 183.718 218.846 314.331 218.846 314.331C233.143 299.892 265.841 296.031 265.841 296.031C265.841 296.031 227.004 236.799 298.481 214.355C369.958 191.911 310.776 291.933 310.776 291.933C414.888 310.329 405.69 417.546 405.69 417.546Z" fill="black"/>
<path d="M386.058 486.498C386.058 486.498 399.066 582.188 323.254 566.125L321.25 587.476C301.665 576.371 282.701 566.747 265.357 558.551C279.509 559.648 291.803 559.502 300.521 557.453L280.364 472.68C280.364 472.68 252.011 456.621 268.879 435.179C285.748 413.736 299.52 433.651 299.52 433.651L344.458 404.3L348.506 417.546H389.205L405.932 474.203L386.058 486.498Z" fill="#FCBAB9"/>
<path d="M579.622 886.687L436.426 986.659C454.964 1009.61 496.326 1054.85 547.019 1072.25L494.018 1115.99H166.236C51.3944 993.475 51.3944 829.6 65.1664 733.1C74.7442 665.864 146.129 587.426 188.493 546.064C213.462 551.489 241.861 556.739 265.307 558.551H265.357C282.701 566.747 301.665 576.371 321.25 587.476C355.18 606.728 390.874 630.315 422.608 658.143C432.57 666.907 442.144 676.013 451.154 685.591C455.298 689.977 459.3 694.355 463.211 698.649C553.797 798.53 589.012 880.11 589.012 880.11L579.622 886.687Z" fill="#F84C01"/>
<path d="M547.028 1072.25L494.027 1115.99H166.236C51.3944 993.475 51.3944 829.6 65.1664 733.1C74.7442 665.864 146.129 587.426 188.493 546.064C191.831 546.782 195.214 547.497 198.642 548.209C169.575 593.335 144.03 645.277 142.507 690.165C138.838 796.956 158.136 975.558 297.713 1095.6L539.691 1069.48C542.116 1070.48 544.553 1071.39 547.028 1072.25Z" fill="#E54210"/>
<path d="M426.097 996.767L424.728 994.864C424.273 994.238 378.993 930.946 360.367 863.926L364.958 862.653C381.547 922.332 419.629 979.127 427.253 990.161L435.07 984.706L437.795 988.617L426.097 996.767Z" fill="#020202"/>
<path d="M906.031 884.747C885.302 880.031 866.338 890.944 851.611 902.905C842.367 910.388 834.792 918.296 829.454 923.016C815.682 935.261 702.318 1060.87 605.822 1077.74C585.423 1081.31 565.604 1078.65 547.016 1072.26C496.314 1054.87 454.952 1009.66 436.422 986.676L579.618 886.704L603.539 922.252C603.539 922.252 677.825 888.561 711.524 890.848C745.224 893.135 785.43 890.084 838.661 860.207C891.892 830.331 882.31 854.87 882.31 854.87C898.94 852.729 899.938 858.112 898.319 862.494C897.578 864.306 896.566 865.995 895.318 867.502C914.098 868.245 906.031 884.747 906.031 884.747Z" fill="#FCBAB9"/>
<path d="M906.031 884.747C885.302 880.031 866.338 890.944 851.611 902.905C842.367 910.388 834.792 918.296 829.454 923.016C815.682 935.261 702.318 1060.87 605.822 1077.74C585.423 1081.31 565.604 1078.65 547.016 1072.26C496.314 1054.87 454.952 1009.66 436.422 986.676L466.349 965.809C488.176 989.113 521.103 1018.08 559.369 1031.19C577.953 1037.57 597.763 1040.25 618.171 1036.67C714.667 1019.8 828.031 894.187 841.803 881.942C847.141 877.222 854.716 869.314 863.964 861.831C869.635 857.211 875.924 852.779 882.744 849.348C883.457 851.969 882.326 854.874 882.326 854.874C898.957 852.733 899.955 858.117 898.335 862.499C897.595 864.31 896.583 865.999 895.335 867.507C914.098 868.245 906.031 884.747 906.031 884.747Z" fill="#EAA4A4"/>
<path d="M532.354 540.634L507.06 571.329C508.967 573.141 509.681 576.617 505.011 583.015L539.992 598.786L568.341 611.606L573.011 605.885L579.73 597.738L592.596 582.155L599.412 573.863L606.606 565.144L532.354 540.634ZM535.021 570.461L524.171 566.367L536.177 549.257L545.851 554.882L535.021 570.461Z" fill="#111111"/>
<path d="M539.979 598.769C536.595 616.497 500.804 640.607 493.518 648.327C488.18 654.045 472.234 682.302 463.211 698.649C459.3 694.359 455.281 689.977 451.154 685.591C442.144 675.992 432.57 666.911 422.608 658.143L460.348 622.023C460.348 622.023 455.728 570.691 501.71 569.176C501.71 569.176 505.048 569.368 507.047 571.321C508.955 573.132 509.668 576.609 504.998 583.006L539.979 598.769Z" fill="#EAA4A4"/>
<path d="M591.061 601.344L584.676 614.874L572.999 605.868L579.718 597.721L591.061 601.344Z" fill="#CCB909"/>
<path d="M610.216 577.326L603.877 590.861L592.584 582.138L599.399 573.846L610.216 577.326Z" fill="#CCB909"/>
<path d="M545.839 554.882L535.021 570.461L524.158 566.367L536.165 549.257L545.839 554.882Z" fill="#CCB909"/>
<path d="M907.759 907.178C892.939 918.137 865.921 909.035 851.623 902.888C866.351 890.927 885.314 880.014 906.043 884.73C906.043 884.73 914.098 868.245 895.322 867.481C896.57 865.974 897.582 864.285 898.323 862.473C945.928 858.238 925.821 893.882 907.759 907.178Z" fill="black"/>
<path d="M692.656 361.411V669.77L884.074 680.829L1020.84 688.688L1193.01 698.649V306.231L692.656 361.411ZM1158.27 677.92L715.1 647.326V385.144L1158.27 336.871V677.92Z" fill="#111111"/>
<path d="M1158.27 336.871V677.92L715.101 647.326V385.144L1158.27 336.871Z" fill="#D6D6D6"/>
<path d="M1020.84 688.688L884.075 680.829L904.524 746.872L860.491 770.748L994.159 787.475L1041.1 763.077L1020.84 688.688ZM920.099 756.834L923.676 752.21L1021.69 761.391L1009.21 765.727L920.099 756.834Z" fill="#111111"/>
<path d="M1021.69 761.408L1009.21 765.744L920.099 756.834L923.676 752.21L1021.69 761.408Z" fill="#CCB909"/>
<path d="M1045.43 779.04L997.965 804.293L859.344 788.998V771.366L860.487 770.748L994.155 787.475L1041.09 763.077L1045.43 779.04Z" fill="black"/>
<path d="M365.759 455.077C369.355 455.077 372.27 450.449 372.27 444.74C372.27 439.03 369.355 434.402 365.759 434.402C362.164 434.402 359.249 439.03 359.249 444.74C359.249 450.449 362.164 455.077 365.759 455.077Z" fill="black"/>
<path d="M466.892 286.115L627.736 178.898L655.309 255.479L466.892 286.115Z" fill="black"/>
<path d="M448.901 258.546L414.688 136.009L519.092 148.262L448.901 258.546Z" fill="black"/>
<path d="M829.609 479.145C824.525 479.089 819.448 478.738 814.405 478.093L814.685 475.727C837.492 478.439 843.898 475.309 845.234 472.217C847.103 467.948 840.76 461.007 835.159 454.885C829.559 448.763 824.78 443.525 826.925 439.919C827.718 438.576 829.429 437.67 831.879 437.299C839.086 436.214 851.631 439.644 860.141 447.315C867.974 454.355 871.409 463.841 873.45 469.508C873.746 470.343 874.063 471.178 874.351 471.937C874.351 471.182 874.297 470.318 874.255 469.5C873.946 463.286 873.42 452.89 879.543 445.537C882.677 441.781 887.213 439.177 893.031 437.845L893.561 440.174C888.265 441.384 884.167 443.7 881.375 447.064C875.862 453.696 876.346 463.515 876.634 469.383C876.83 473.344 876.939 475.526 875.177 475.91C873.416 476.294 872.653 474.308 871.213 470.318C869.239 464.863 865.933 455.711 858.551 449.084C849.745 441.155 837.872 438.809 832.259 439.665C830.589 439.919 829.4 440.462 828.991 441.151C827.739 443.237 832.634 448.575 836.941 453.287C843.326 460.273 849.925 467.476 847.446 473.181C845.676 477.162 839.813 479.145 829.609 479.145Z" fill="black"/>
<path d="M970.897 419.42V434.394H889.726V442.82L970.897 446.217V557.607H889.726V566.029L970.897 569.43V595.355C1016.88 587.063 1051.48 550.801 1051.48 507.386C1051.48 463.97 1016.88 427.721 970.897 419.42Z" fill="black"/>
<path d="M814.547 489.545C821.526 489.545 827.184 483.887 827.184 476.908C827.184 469.929 821.526 464.271 814.547 464.271C807.568 464.271 801.91 469.929 801.91 476.908C801.91 483.887 807.568 489.545 814.547 489.545Z" fill="#CCB909"/>
<path d="M620.216 999.705C620.955 999.705 621.555 998.444 621.555 996.888C621.555 995.333 620.955 994.071 620.216 994.071C619.476 994.071 618.876 995.333 618.876 996.888C618.876 998.444 619.476 999.705 620.216 999.705Z" fill="black"/>
</svg>
