<svg width="1404" height="1404" viewBox="0 0 1404 1404" fill="none" xmlns="http://www.w3.org/2000/svg">
<path d="M695.513 1121.08C696.343 1121.08 697.016 1119.66 697.016 1117.92C697.016 1116.17 696.343 1114.76 695.513 1114.76C694.684 1114.76 694.011 1116.17 694.011 1117.92C694.011 1119.66 694.684 1121.08 695.513 1121.08Z" fill="black"/>
<path d="M625.637 853.403C624.822 853.946 624.008 854.465 623.17 854.966C551.098 898.845 404.614 814.114 400.987 811.999C400.962 811.987 400.938 811.971 400.917 811.952C392.313 817.768 383.274 822.912 373.881 827.34C339.061 843.902 280.721 859.58 261.285 792.315C255.107 770.922 255.865 753.569 260.817 739.506C278.657 689.036 350.719 681.006 350.719 681.006C396.537 650.44 392.17 550.115 392.17 550.115C507.808 526.112 577.62 427.939 577.62 427.939C577.62 427.939 671.44 539.211 699.801 622.112C728.161 705.014 697.629 805.428 625.637 853.403Z" fill="#FCBAB9"/>
<path d="M577.634 427.963C577.634 427.963 507.822 526.135 392.184 550.139C392.184 550.139 396.55 650.464 350.733 681.029C350.733 681.029 278.661 689.036 260.83 739.529C227.471 704.359 134.704 592.109 176.188 469.437C226.372 321.048 398.736 347.256 398.736 347.256C398.736 347.256 501.275 242.532 562.363 290.534C623.451 338.537 577.634 427.963 577.634 427.963Z" fill="black"/>
<path d="M612.116 972.743C610.712 975.934 609.154 979.079 607.436 982.131C578.34 1034.49 518.722 1097.05 357.267 951.589C357.267 934.133 389.984 903.586 389.984 903.586L373.862 827.34C383.256 822.912 392.295 817.768 400.898 811.952C400.919 811.971 400.943 811.987 400.968 811.999C404.909 815.088 577.886 950.508 612.116 972.743Z" fill="#FCBAB9"/>
<path d="M996.541 1198.12H873.953L612.116 972.743C635.048 921.263 623.17 854.966 623.17 854.966C648.171 861.831 656.136 828.084 752.179 842.498C883.083 862.126 996.541 1198.12 996.541 1198.12Z" fill="#30BFD6"/>
<path d="M873.953 1198.12H143.47C182.74 936.314 357.285 951.589 357.285 951.589C518.745 1097.05 578.359 1034.49 607.455 982.131C609.154 979.08 610.703 975.935 612.135 972.743L873.953 1198.12Z" fill="#3BCEEF"/>
<path d="M543.516 634.801C550.848 632.049 553.017 619.759 548.36 607.35C543.703 594.941 533.984 587.112 526.652 589.863C519.319 592.615 517.151 604.905 521.808 617.314C526.465 629.724 536.184 637.553 543.516 634.801Z" fill="black"/>
<path d="M649.161 578.622C656.388 576.501 659.288 564.704 655.639 552.275C651.991 539.845 643.174 531.488 635.947 533.609C628.72 535.731 625.82 547.527 629.469 559.957C633.118 572.387 641.934 580.744 649.161 578.622Z" fill="black"/>
<path d="M612.116 972.743C577.887 950.508 404.909 815.088 400.987 811.98C404.628 814.095 551.117 898.827 623.17 854.947C623.17 854.966 635.025 921.281 612.116 972.743Z" fill="#EAA4A4"/>
<path d="M1225.62 1207.58H1040.9L1077.26 951.58C1077.26 951.58 1014.72 892.045 1017.62 811.98C1020.53 731.915 1007.44 663.91 1040.9 647.74C1074.35 631.571 1107.82 647.74 1107.82 647.74C1107.82 647.74 1154.36 595.17 1184.91 681.006C1184.91 681.006 1208.18 691.208 1214 721.75C1214 721.75 1234.36 737.751 1234.36 758.113C1234.36 758.113 1260.57 768.409 1260.57 811.98C1260.57 855.551 1241.66 938.471 1222.75 966.107L1225.62 1207.58Z" fill="#FCBAB9"/>
<path d="M1040.9 1207.58L1077.26 951.58C1077.26 951.58 1014.72 892.045 1017.62 811.98C1020.53 731.914 1007.44 663.905 1040.9 647.74C1056.84 640.037 1072.75 639.672 1085.07 641.403C1083.51 650.139 1082.16 659.159 1081.02 668.463C1080.65 671.508 1080.3 674.581 1079.97 677.683C1066.95 691.521 1047.21 716.714 1050.95 739.023C1051.85 744.349 1053.76 750.911 1057.81 751.907C1063.02 753.185 1071.38 745.664 1076.43 739.622C1076.38 744.268 1076.37 748.959 1076.4 753.695C1073.07 762.428 1070.78 773.585 1077 780.067C1077.09 782.563 1077.2 785.086 1077.33 787.635C1079.83 840.125 1087.35 896.768 1100.3 955.085C1122.15 1053.39 1155.94 1140.82 1194.89 1207.56L1040.9 1207.58Z" fill="#EAA4A4"/>
<path d="M1184.42 859.716C1166.39 866.366 1152.2 869.694 1141.66 869.694C1132.87 869.694 1126.63 867.387 1122.8 862.758C1115.83 854.334 1119.56 840.495 1123.52 831.004C1123.21 831.131 1122.89 831.252 1122.56 831.365C1116.27 833.583 1106.03 834.173 1093.01 824.42C1086.28 819.365 1082.87 813.412 1082.87 806.739C1082.87 801.094 1085.36 795.834 1088.38 791.524C1084.68 791.468 1080.98 790.176 1077.34 787.677C1076.14 786.856 1075 785.958 1073.92 784.986C1064.87 776.838 1066.93 763.458 1070.64 753.068C1066.24 756.283 1061.2 758.591 1056.49 757.435C1050.85 756.059 1047.13 750.185 1045.4 739.992C1040.63 711.641 1068.35 680.893 1081.04 668.505C1084.37 665.229 1086.66 663.268 1087.07 662.917C1087.35 662.675 1087.68 662.491 1088.03 662.375C1088.39 662.26 1088.76 662.215 1089.13 662.243C1089.5 662.272 1089.86 662.373 1090.2 662.541C1090.53 662.71 1090.82 662.942 1091.06 663.224C1091.31 663.506 1091.49 663.834 1091.61 664.187C1091.72 664.541 1091.77 664.914 1091.74 665.285C1091.71 665.656 1091.61 666.017 1091.44 666.349C1091.27 666.681 1091.04 666.976 1090.76 667.218C1090.61 667.34 1086.02 671.313 1079.99 677.725C1066.97 691.564 1047.23 716.756 1050.98 739.066C1051.87 744.392 1053.79 750.953 1057.83 751.95C1063.05 753.227 1071.41 745.707 1076.46 739.665C1076.99 739.033 1077.47 738.411 1077.93 737.821C1078.14 737.514 1078.4 737.251 1078.72 737.047C1079.03 736.844 1079.38 736.704 1079.74 736.635C1080.11 736.566 1080.48 736.57 1080.85 736.647C1081.21 736.724 1081.56 736.871 1081.87 737.081C1082.17 737.292 1082.44 737.56 1082.64 737.872C1082.84 738.184 1082.98 738.533 1083.05 738.899C1083.12 739.264 1083.12 739.64 1083.04 740.005C1082.96 740.369 1082.82 740.715 1082.61 741.022C1080.17 745.066 1078.1 749.312 1076.4 753.714C1073.07 762.447 1070.78 773.604 1077 780.086C1077.21 780.311 1077.47 780.554 1077.69 780.75C1081.77 784.429 1085.76 786.128 1089.58 785.81C1091.47 785.632 1093.3 785.008 1094.9 783.989C1096.15 782.784 1097.46 781.651 1098.83 780.596C1099.37 780.126 1100.07 779.879 1100.79 779.907C1101.5 779.935 1102.18 780.236 1102.68 780.747C1103.18 781.258 1103.47 781.941 1103.48 782.657C1103.5 783.372 1103.24 784.067 1102.76 784.597C1101.52 786.076 1100.08 787.364 1098.47 788.421C1094.41 792.371 1088.5 799.386 1088.51 806.724C1088.51 811.521 1091.17 815.949 1096.4 819.871C1117.02 835.338 1128.35 821.036 1128.81 820.428C1129.23 819.807 1129.88 819.379 1130.62 819.237C1131.35 819.095 1132.11 819.252 1132.74 819.672C1133.36 820.092 1133.78 820.741 1133.93 821.477C1134.07 822.213 1133.91 822.975 1133.49 823.596C1129.28 830.541 1119.98 850.473 1127.16 859.164C1131.68 864.639 1144.94 868.257 1182.45 854.409C1183.16 854.149 1183.94 854.179 1184.62 854.493C1185.3 854.807 1185.83 855.378 1186.09 856.082C1186.35 856.786 1186.32 857.564 1186 858.246C1185.69 858.927 1185.12 859.456 1184.41 859.716H1184.42Z" fill="black"/>
<path d="M1136.67 963.387C1110.7 926.415 1117.82 893.145 1118.14 891.746L1123.65 892.986C1123.58 893.309 1116.84 925.325 1141.3 960.139L1136.67 963.387Z" fill="black"/>
<path d="M1082.17 622.407C1079.21 624.339 1076.19 626.201 1073.09 627.995C973.665 685.409 840.523 640.949 775.71 528.69C710.897 416.431 738.972 278.928 838.408 221.5C841.483 219.726 844.609 218.041 847.768 216.469C765.105 271.473 748.135 399.658 810.908 508.384C873.681 617.109 993.204 666.516 1082.17 622.407Z" fill="black"/>
<path d="M1137.96 324.652C1137.25 323.366 1136.53 322.084 1135.79 320.805C1135.05 319.527 1134.31 318.249 1133.55 316.995C1070 210.993 944.859 167.507 847.754 216.469C765.091 271.473 748.121 399.658 810.894 508.384C873.667 617.11 993.204 666.516 1082.17 622.407C1173.1 562.765 1197.99 432.68 1137.96 324.652ZM1067.15 590.799C990.658 634.964 885.423 595.914 832.118 503.577C778.813 411.241 797.603 300.592 874.097 256.427C950.592 212.261 1055.81 251.316 1109.16 343.648C1162.51 435.98 1143.64 546.624 1067.15 590.799Z" fill="#111111"/>
<path d="M1067.15 590.798C990.658 634.964 885.423 595.914 832.118 503.577C778.813 411.241 797.603 300.592 874.097 256.426C950.592 212.261 1055.81 251.316 1109.16 343.648C1162.51 435.979 1143.64 546.624 1067.15 590.798Z" fill="#D6D6D6"/>
<path d="M987.85 384.593C1004.19 384.593 1017.44 371.347 1017.44 355.006C1017.44 338.666 1004.19 325.419 987.85 325.419C971.509 325.419 958.263 338.666 958.263 355.006C958.263 371.347 971.509 384.593 987.85 384.593Z" fill="#F7F7F7"/>
</svg>
