<svg width="1531" height="1531" viewBox="0 0 1531 1531" fill="none" xmlns="http://www.w3.org/2000/svg">
<path d="M758.427 1222.48C759.331 1222.48 760.065 1220.94 760.065 1219.04C760.065 1217.14 759.331 1215.59 758.427 1215.59C757.522 1215.59 756.789 1217.14 756.789 1219.04C756.789 1220.94 757.522 1222.48 758.427 1222.48Z" fill="black"/>
<path d="M1380.12 1033.27C1294.06 944.3 1094.65 856.13 913.165 804.352L904.413 854.977C785.316 896.727 765.495 811.496 765.495 811.496L768.389 770.272C686.159 755.62 618.116 752.992 581.668 767.133C546.679 780.703 491.196 810.481 429.992 849.2L332.518 1071.11L163.965 1061.61C113.299 1117.58 84.3531 1170.86 98.9844 1210.71C145.935 1338.56 263.368 1294.2 495.59 1192.45C495.59 1192.45 451.237 1255.06 558.218 1328.12L539.933 1445.54H1040.9L1043.15 1436.66C1017.55 1419.36 1001.76 1399.89 1001.76 1399.89C980.897 1418.16 936.533 1412.93 936.533 1412.93C963.632 1361.33 1032.82 1374.79 1034.35 1375.09L975.661 1335.97C975.661 1335.97 916.972 1329.44 905.469 1312.49C893.966 1295.54 978.309 1290.29 978.309 1290.29C885.592 1289.02 907.883 1277.25 907.883 1277.25C949.174 1241.11 1010.91 1280.31 1012.22 1281.14C900.065 1170.26 957.457 1174.18 957.457 1174.18L1077.98 1298.7L1114.01 1155.9L1220.98 1171.55L1181.86 1234.16L1194.98 1241.82L1311.5 1310.03L1320.1 1315.06C1320.1 1315.06 1534.06 1192.44 1380.12 1033.27ZM576.376 1104.43L573.656 1104.99C526.603 1114.55 511.15 1156.66 506.062 1170.5C504.48 1174.79 504.021 1176.08 502.668 1176.98L498.933 1171.34C498.671 1171.51 498.439 1171.72 498.244 1171.97C498.524 1171.39 499.162 1169.68 499.719 1168.16C505.021 1153.72 520.974 1110.29 569.634 1098.94V1015H576.401L576.376 1104.43Z" fill="#00C951"/>
<path d="M576.376 1015V1104.43L573.656 1104.99C526.603 1114.55 511.15 1156.66 506.062 1170.5C504.48 1174.79 504.021 1176.08 502.668 1176.98L498.933 1171.34C498.671 1171.51 498.439 1171.72 498.244 1171.97C498.524 1171.39 499.162 1169.68 499.719 1168.16C505.021 1153.72 520.974 1110.29 569.634 1098.94V1015H576.376Z" stroke="#30BFD6" stroke-miterlimit="10"/>
<path d="M496.105 698.713L430.002 849.195L332.528 1071.11L163.975 1061.61V1061.58L180.398 1029.61C205.725 1025.5 237.33 1017.67 268.583 1002.82C303.49 986.25 333.013 886.02 353.753 790.277C364.001 791.77 374.339 792.56 384.694 792.64C392.176 792.64 396.432 790.818 397.657 787.026C400.106 779.57 387.562 767.123 377.09 758.304C385.766 761.254 397.412 764.428 407.736 764.428C414.539 764.428 420.765 763.066 425.148 759.356C428.001 756.937 428.21 754.252 427.92 752.43C426.475 743.755 408.318 733.298 391.446 725.301C403.122 727.853 416.651 730.011 428.624 730.011C440.708 730.011 451.221 727.807 456.692 721.499C457.552 720.576 458.197 719.474 458.583 718.273C458.968 717.071 459.084 715.8 458.922 714.548C458.356 710.231 454.635 705.617 447.557 700.478L496.105 698.713Z" fill="#EAA4A4"/>
<path d="M458.897 714.543C458.33 710.226 454.61 705.612 447.532 700.473L444.204 700.591C443.092 699.835 441.918 699.06 440.698 698.32L439.091 697.335C439.01 697.275 438.922 697.224 438.831 697.182C438.198 696.804 437.56 696.426 436.896 696.049C436.233 695.671 435.677 695.344 435.059 695.003C434.959 694.939 434.855 694.881 434.748 694.829C434.125 694.477 433.487 694.125 432.85 693.808C427.103 690.68 420.729 687.623 414.263 684.745C413.14 684.234 412.028 683.755 410.905 683.27C406.037 681.157 401.137 679.141 396.473 677.289L394.432 676.493C393.253 676.028 392.089 675.584 390.951 675.135L388.262 674.115C388.098 674.058 387.935 673.992 387.751 673.926L385.71 673.155C384.036 672.533 382.408 671.92 380.867 671.369C380.071 671.068 379.3 670.787 378.54 670.517L376.442 669.756C369.221 667.174 364.373 665.592 363.847 665.413C363.847 665.413 364.307 665.495 366.986 666.026C367.231 666.077 367.496 666.133 367.813 666.184C367.876 666.194 367.939 666.208 368.001 666.225L368.599 666.337C368.828 666.373 369.058 666.429 369.298 666.47C369.538 666.511 369.732 666.567 369.961 666.608C370.191 666.648 370.471 666.699 370.732 666.756L371.574 666.919C371.885 666.985 372.207 667.036 372.533 667.108C373.13 667.215 373.778 667.337 374.457 667.47C375.386 667.659 376.391 667.863 377.483 668.067C377.948 668.159 378.417 668.241 378.907 668.348C384.113 669.368 391.109 670.731 400.525 672.558C402.811 673.007 405.261 673.477 407.859 673.992C410.793 674.574 413.931 675.181 417.274 675.834C434.58 679.203 442.332 675.615 442.332 668.731C442.332 668.501 442.332 668.271 442.332 668.042C442.332 667.889 442.332 667.741 442.291 667.577C442.25 667.414 442.235 667.2 442.209 667.026C441.876 665.215 441.254 663.47 440.367 661.856C440.234 661.586 440.086 661.346 439.938 661.06C439.678 660.586 439.397 660.111 439.086 659.626C438.974 659.463 438.866 659.3 438.759 659.116C437.916 657.845 437.003 656.622 436.024 655.452C435.825 655.207 435.605 654.941 435.391 654.707C432.137 651.001 428.531 647.62 424.623 644.612L423.036 643.382C422.184 642.734 421.306 642.096 420.397 641.458C419.938 641.137 419.479 640.81 419.02 640.499C416.84 638.999 414.513 637.508 412.053 636.049C411.63 635.794 411.201 635.538 410.767 635.288C409.9 634.778 409.022 634.268 408.114 633.788C407.409 633.397 406.693 633.006 405.965 632.614C405.654 632.451 405.327 632.272 405.001 632.104C404.434 631.803 403.852 631.507 403.271 631.211C402.082 630.598 400.862 630.006 399.617 629.425L397.871 628.613C396.953 628.179 396.019 627.771 395.075 627.353C394.962 627.312 394.84 627.256 394.723 627.205C394.33 627.026 393.921 626.853 393.518 626.694C387.219 624.027 380.768 621.736 374.197 619.835C373.36 619.591 372.509 619.351 371.645 619.116C370.671 618.845 369.686 618.606 368.685 618.335C368.007 618.157 367.343 617.993 366.644 617.825C365.742 617.593 364.832 617.376 363.914 617.172C362.893 616.942 361.872 616.712 360.852 616.498C359.678 616.253 358.474 615.988 357.279 615.778C350.145 614.37 342.887 613.686 335.616 613.737C279.076 614.605 267.823 671.537 250.298 735.814C230.722 807.562 277.698 840.177 277.698 840.177L180.377 1029.61C205.705 1025.49 237.31 1017.66 268.563 1002.82C303.47 986.245 332.993 886.015 353.733 790.272C363.98 791.765 374.318 792.554 384.674 792.634C392.156 792.634 396.412 790.813 397.637 787.021C400.086 779.565 387.542 767.118 377.07 758.299C385.746 761.249 397.392 764.423 407.716 764.423C414.518 764.423 420.744 763.061 425.128 759.35C427.981 756.931 428.19 754.247 427.899 752.425C426.455 743.75 408.297 733.293 391.426 725.296C403.102 727.848 416.631 730.006 428.604 730.006C440.688 730.006 451.201 727.802 456.672 721.494C457.531 720.57 458.175 719.468 458.56 718.267C458.944 717.065 459.06 715.794 458.897 714.543Z" fill="#FCBAB9"/>
<path d="M456.667 721.494C451.216 727.802 440.703 730.006 428.598 730.006C416.626 730.006 403.082 727.827 391.42 725.296C408.292 733.293 426.45 743.765 427.894 752.425C428.205 754.252 427.976 756.931 425.123 759.35C420.739 763.061 414.513 764.423 407.71 764.423C397.386 764.423 385.725 761.274 377.065 758.299C387.537 767.108 400.081 779.565 397.631 787.021C396.386 790.797 392.15 792.634 384.669 792.634C374.313 792.555 363.975 791.765 353.727 790.272C340.216 788.388 326.836 785.66 313.666 782.106L314.779 778.207C327.867 781.728 341.161 784.431 354.585 786.301C364.546 787.737 374.594 788.496 384.658 788.572C389.935 788.572 393.171 787.551 393.763 785.76C395.58 780.254 380.101 765.127 364.434 753.507H364.255L363.648 752.895L365.097 751.461V749.419H365.541L365.95 749.608C377.585 754.9 410.405 766.449 422.489 756.212C423.99 754.941 424.02 753.859 423.883 753.048C422.474 744.643 394.442 730.047 367.817 719.453C366.73 719.019 365.649 718.6 364.582 718.182C364.374 718.118 364.178 718.021 364 717.896L365.082 716.299V714.176L365.868 714.339L365.96 714.365C366.812 714.635 367.68 714.875 368.573 715.166C395.682 723.331 441.591 732.604 453.564 718.805C454.043 718.309 454.404 717.713 454.622 717.059C454.839 716.406 454.906 715.711 454.819 715.028C454.508 712.635 452.211 708.48 443.025 702.229L444.158 700.55L445.296 698.876C446.052 699.386 446.786 699.897 447.486 700.407C454.564 705.546 458.284 710.159 458.851 714.477C459.029 715.735 458.925 717.018 458.548 718.231C458.17 719.445 457.527 720.559 456.667 721.494Z" fill="black"/>
<path d="M507.323 673.196L496.105 698.713" stroke="#30BFD6" stroke-miterlimit="10"/>
<path d="M516.457 574.054V697.983L496.11 698.713L447.537 700.473L444.209 700.591C443.097 699.835 441.923 699.06 440.703 698.32C440.193 697.993 439.647 697.656 439.096 697.335C439.015 697.275 438.927 697.224 438.836 697.182C438.203 696.789 437.565 696.411 436.901 696.049C436.238 695.686 435.682 695.344 435.064 695.003C434.964 694.939 434.86 694.881 434.753 694.829C434.13 694.477 433.508 694.125 432.854 693.808C427.108 690.68 420.734 687.623 414.268 684.745C413.145 684.234 412.033 683.755 410.91 683.27C406.041 681.157 401.142 679.141 396.478 677.289L394.437 676.493C393.258 676.028 392.094 675.584 390.956 675.135L388.267 674.115C388.103 674.058 387.94 673.992 387.756 673.926L385.715 673.155C384.041 672.533 382.413 671.92 380.872 671.369C380.076 671.068 379.305 670.787 378.545 670.517L376.447 669.756C369.226 667.174 364.378 665.592 363.852 665.413C363.852 665.413 364.312 665.495 366.991 666.026C367.236 666.077 367.501 666.133 367.818 666.184C367.881 666.194 367.944 666.208 368.006 666.225L368.603 666.337C368.833 666.373 369.063 666.429 369.303 666.47C369.542 666.511 369.736 666.567 369.966 666.608C370.196 666.648 370.476 666.699 370.737 666.756L371.579 666.919C371.89 666.985 372.211 667.036 372.538 667.108C373.135 667.23 373.783 667.348 374.462 667.47C375.391 667.659 376.396 667.863 377.488 668.067L378.912 668.348C384.118 669.368 391.114 670.731 400.53 672.558C402.816 673.007 405.266 673.492 407.863 673.992C410.798 674.574 413.936 675.181 417.279 675.834C434.584 679.203 442.336 675.615 442.336 668.731C442.336 668.501 442.336 668.271 442.336 668.042C442.336 667.889 442.336 667.741 442.296 667.577C442.255 667.414 442.255 667.215 442.214 667.026C441.881 665.215 441.259 663.47 440.372 661.856C440.239 661.586 440.091 661.346 439.943 661.06C439.683 660.586 439.402 660.111 439.091 659.626C438.978 659.463 438.887 659.3 438.764 659.116C437.921 657.845 437.008 656.622 436.029 655.452C435.83 655.207 435.626 654.941 435.396 654.707C432.142 651.001 428.536 647.62 424.628 644.612C424.118 644.194 423.607 643.785 423.041 643.382C422.188 642.734 421.311 642.096 420.402 641.458C419.943 641.137 419.484 640.81 419.024 640.499C416.845 638.999 414.518 637.508 412.058 636.049C411.635 635.794 411.206 635.538 410.772 635.288C409.905 634.778 409.027 634.268 408.119 633.788C407.414 633.385 406.7 633.002 405.97 632.614C405.659 632.451 405.332 632.272 405.006 632.104C404.439 631.803 403.857 631.507 403.275 631.211C402.086 630.598 400.867 630.006 399.621 629.425L397.876 628.613C396.958 628.179 396.024 627.771 395.08 627.353C394.967 627.312 394.845 627.256 394.727 627.205C394.334 627.026 393.926 626.853 393.523 626.694C387.224 624.027 380.773 621.736 374.202 619.835C373.365 619.591 372.514 619.351 371.65 619.116C370.675 618.845 369.69 618.606 368.69 618.335C368.011 618.157 367.348 617.993 366.649 617.825C365.747 617.593 364.837 617.376 363.919 617.172C362.898 616.942 361.877 616.712 360.857 616.498C359.683 616.253 358.478 615.988 357.284 615.778C350.15 614.37 342.892 613.686 335.621 613.737V564.939L350.584 565.699L405.96 568.496L412.768 568.838L452.88 570.879L459.632 571.221L502.709 573.4L516.457 574.054Z" fill="black"/>
<path d="M576.376 1015V1104.43L573.656 1104.99C526.603 1114.55 511.15 1156.66 506.062 1170.5C504.48 1174.79 504.021 1176.08 502.668 1176.98L498.933 1171.34C498.671 1171.51 498.439 1171.72 498.244 1171.97C498.524 1171.39 499.162 1169.68 499.719 1168.16C505.021 1153.72 520.974 1110.29 569.634 1098.94V1015H576.376Z" fill="black"/>
<path d="M962.642 621.877C950.465 614.926 912.19 607.97 915.691 501.857C919.192 395.743 820.024 428.797 785.229 458.376C779.38 463.422 773.92 468.903 768.899 474.773C738.381 510.043 708.276 570.818 715.635 625.357C724.311 689.731 773.043 704.505 773.043 704.505L768.414 770.272L765.52 811.496C765.52 811.496 785.342 896.722 904.438 854.977L913.19 804.352L934.813 679.284C934.813 679.284 993.966 750.614 1021.79 679.284C1024.6 672.14 1026.35 665.878 1027.23 660.453C1035.2 611.89 973.599 628.144 962.642 621.877ZM765.5 525.848C761.236 525.848 757.148 524.154 754.133 521.139C751.118 518.124 749.424 514.036 749.424 509.772C749.424 505.509 751.118 501.42 754.133 498.405C757.148 495.39 761.236 493.697 765.5 493.697H765.556C769.82 493.704 773.905 495.405 776.915 498.425C779.924 501.445 781.611 505.537 781.604 509.8C781.596 514.064 779.895 518.15 776.875 521.159C773.855 524.169 769.763 525.855 765.5 525.848ZM846.531 549.701C843.52 549.702 840.576 548.81 838.072 547.137C835.568 545.465 833.616 543.088 832.463 540.307C831.31 537.525 831.007 534.464 831.594 531.511C832.181 528.557 833.63 525.844 835.759 523.715C837.888 521.585 840.601 520.135 843.554 519.547C846.507 518.959 849.568 519.26 852.35 520.412C855.132 521.564 857.51 523.516 859.183 526.019C860.856 528.523 861.749 531.466 861.749 534.477C861.747 538.515 860.142 542.387 857.287 545.242C854.431 548.097 850.558 549.701 846.52 549.701H846.531Z" fill="#FCBAB9"/>
<path d="M1195.71 536.641C1152.23 580.142 1075.69 564.919 1075.69 564.919C1075.69 564.919 1055.03 636.151 1027.21 660.453C1035.19 611.88 973.588 628.144 962.632 621.877C950.455 614.926 912.18 607.97 915.681 501.857C919.182 395.743 820.014 428.797 785.219 458.376C779.369 463.422 773.91 468.903 768.889 474.773C776.197 449.486 799.197 408.94 871.226 390.522C980.034 362.694 980.034 390.522 980.034 390.522C980.034 390.522 1054.86 220.056 1159.2 308.752C1263.53 397.448 1239.21 493.161 1195.71 536.641Z" fill="black"/>
<path d="M1027.22 660.453C1023.77 663.469 1020.21 665.766 1016.56 667.087" stroke="#30BFD6" stroke-miterlimit="10"/>
<path d="M579.948 444.454C559.382 487.154 512.936 518.351 502.719 573.365L459.642 571.185C460.224 546.99 460.28 523.03 459.821 499.611C459.766 496.947 459.712 494.295 459.657 491.655C459.3 474.61 458.912 458.172 460.255 439.907C472.982 438.335 482.316 435.86 492.206 429.445C499.162 424.929 517.631 412.941 519.821 391.727C521.5 375.493 512.855 359.295 503.546 350.461C497.106 344.337 490.395 341.479 484.618 342.383C469.236 344.766 463.944 372.814 458.331 402.495C456.223 413.722 454.825 424.051 453.947 433.804C449.915 434.207 445.48 434.574 440.515 434.983C430.641 435.806 420.722 435.946 410.829 435.401C410.614 432.339 410.426 428.945 410.247 425.143V424.684C409.895 416.947 409.313 404 400.367 393.145C398.193 390.497 386.486 377.371 370.048 378.887C359.632 379.836 349.512 386.542 342.965 396.799C337.861 404.852 336.157 413.482 338.474 419.923C342.194 430.272 353.988 432.763 377.489 437.738C386.419 439.644 395.462 440.982 404.562 441.744C405.201 449.663 406.409 457.525 408.175 465.271C409.854 472.926 411.303 479.535 411.344 499.677C411.359 522.71 409.571 545.707 405.996 568.46L350.599 565.679C341.673 543.224 321.745 495.176 299.893 456.631C270.293 404.444 212.911 272.237 319.025 197.448C425.138 122.659 545.154 183.526 579.953 244.399C614.753 305.271 602.556 397.493 579.948 444.454Z" fill="#00C951"/>
<path d="M453.053 499.749C453.513 523.005 453.462 546.802 452.89 570.843L412.778 568.802C416.329 545.927 418.101 522.811 418.08 499.662C418.04 478.79 416.524 471.864 414.768 463.827C413.138 456.707 412.007 449.481 411.385 442.204C421.278 442.711 431.194 442.549 441.066 441.719C445.531 441.351 449.619 441.015 453.406 440.647C452.16 458.672 452.528 474.947 452.895 491.793C452.946 494.447 453.002 497.065 453.053 499.749Z" fill="#00C951"/>
<path d="M503.546 350.477C497.106 344.353 490.395 341.495 484.618 342.398C469.236 344.781 463.944 372.829 458.33 402.51C456.223 413.737 454.825 424.067 453.947 433.819C449.915 434.222 445.48 434.59 440.515 434.998C430.641 435.821 420.722 435.961 410.829 435.416C410.614 432.354 410.425 428.961 410.247 425.159V424.699C409.895 416.963 409.313 404.016 400.367 393.161C398.193 390.512 386.486 377.386 370.048 378.902C359.632 379.851 349.512 386.557 342.965 396.815C337.861 404.868 336.157 413.498 338.474 419.938C342.194 430.288 353.988 432.778 377.489 437.754C386.419 439.66 395.462 440.998 404.562 441.76C405.201 449.678 406.409 457.541 408.175 465.286C409.854 472.941 411.303 479.55 411.344 499.693C411.359 522.725 409.571 545.723 405.996 568.476L412.804 568.818C416.354 545.942 418.127 522.827 418.106 499.678C418.065 478.805 416.549 471.88 414.794 463.842C413.164 456.722 412.033 449.497 411.41 442.219C421.304 442.726 431.22 442.564 441.091 441.734C445.557 441.367 449.645 441.03 453.431 440.663C452.186 458.688 452.554 474.962 452.921 491.808C452.977 494.447 453.033 497.08 453.084 499.749C453.544 523.005 453.493 546.802 452.921 570.844L459.673 571.186C460.254 546.991 460.311 523.03 459.851 499.611C459.797 496.947 459.742 494.295 459.688 491.655C459.3 474.61 458.912 458.172 460.254 439.907C472.982 438.336 482.316 435.86 492.206 429.446C499.162 424.929 517.631 412.941 519.821 391.727C521.5 375.508 512.855 359.31 503.546 350.477ZM378.856 431.14C358.484 426.822 347.256 424.444 344.817 417.652C343.235 413.242 344.695 406.654 348.65 400.453C352.839 393.88 360.811 386.532 370.645 385.654C371.288 385.591 371.933 385.56 372.579 385.562C384.934 385.562 394.08 396.207 395.121 397.478C402.628 406.598 403.133 417.682 403.47 425.011V425.485C403.628 428.95 403.806 432.074 403.98 434.942C395.536 434.185 387.146 432.915 378.856 431.14ZM513.074 391.053C511.221 409.047 494.702 419.749 488.506 423.781C480.06 429.272 472.058 431.558 460.831 433.033C461.699 423.873 463.02 414.212 464.995 403.771C469.451 380.147 475.008 350.737 485.669 349.083C486.018 349.027 486.372 349 486.725 349.002C490.16 349.002 494.615 351.319 498.887 355.376C506.996 363.072 514.534 377.101 513.084 391.053H513.074Z" fill="black"/>
<path d="M513.084 391.053C511.232 409.047 494.712 419.749 488.517 423.781C480.06 429.272 472.058 431.558 460.831 433.033C461.699 423.873 463.02 414.212 464.995 403.77C469.451 380.147 475.008 350.737 485.669 349.083C486.018 349.027 486.372 349 486.725 349.002C490.16 349.002 494.615 351.318 498.887 355.376C506.996 363.071 514.533 377.1 513.084 391.053Z" fill="#00C951"/>
<path d="M404.011 434.926C395.557 434.176 387.156 432.911 378.856 431.14C358.484 426.822 347.256 424.444 344.817 417.652C343.235 413.242 344.695 406.654 348.65 400.453C352.839 393.88 360.811 386.531 370.645 385.654C371.288 385.59 371.933 385.56 372.579 385.562C384.934 385.562 394.08 396.207 395.121 397.478C402.628 406.598 403.133 417.682 403.47 425.011V425.485C403.643 428.935 403.822 432.058 404.011 434.926Z" fill="#00C951"/>
<path d="M846.52 549.695C854.925 549.695 861.739 542.882 861.739 534.477C861.739 526.072 854.925 519.259 846.52 519.259C838.116 519.259 831.302 526.072 831.302 534.477C831.302 542.882 838.116 549.695 846.52 549.695Z" fill="black"/>
<path d="M781.565 509.772C781.566 512.952 780.624 516.06 778.858 518.705C777.093 521.349 774.582 523.41 771.645 524.628C768.708 525.845 765.475 526.164 762.357 525.544C759.238 524.925 756.373 523.394 754.124 521.146C751.876 518.898 750.344 516.034 749.723 512.915C749.103 509.797 749.421 506.564 750.637 503.627C751.854 500.689 753.914 498.178 756.558 496.411C759.202 494.645 762.31 493.702 765.49 493.702H765.546C769.799 493.717 773.872 495.416 776.875 498.428C779.877 501.44 781.564 505.519 781.565 509.772Z" fill="black"/>
<path d="M934.798 679.284C934.798 679.284 857.386 725.372 773.022 704.505L768.878 757.794L930.384 704.796L934.798 679.284Z" fill="#EAA4A4"/>
<path d="M304.587 135.259L319.673 67.9968L359.612 100.888L304.587 135.259Z" fill="black"/>
<path d="M283.909 167.415L208.966 75.5957L189.87 138.622L283.909 167.415Z" fill="black"/>
<path d="M848.5 1443.5L1113.5 1153L1042.5 1443.5H848.5Z" fill="#0AB54F"/>
<path d="M1311.5 1310.03C1281.07 1350.55 1201.13 1449.79 1140.06 1461.18C1102.14 1468.25 1068.01 1453.47 1043.16 1436.65C1030.57 1428.08 1018.91 1418.22 1008.38 1407.22C1018.77 1407.59 1029.1 1409.06 1039.18 1411.62C1071 1419.75 1085.39 1435.17 1115.73 1432.5C1154.03 1429.1 1180.17 1400.1 1187.04 1392.48C1225.24 1350.12 1223.56 1291.43 1217.52 1255.06L1311.5 1310.03Z" fill="#EAA4A4"/>
<path d="M1187.04 1392.48C1180.17 1400.13 1154.03 1429.1 1115.72 1432.5C1085.4 1435.17 1071.01 1419.74 1039.17 1411.62C1029.09 1409.06 1018.77 1407.59 1008.38 1407.22C1004.08 1402.73 1001.74 1399.87 1001.74 1399.87C997.713 1403.29 993.115 1405.96 988.158 1407.78C977.702 1411.86 965.607 1413.21 955.768 1413.53C949.345 1413.76 942.913 1413.56 936.518 1412.92C963.617 1361.32 1032.81 1374.78 1034.33 1375.08L975.645 1335.95C975.645 1335.95 916.957 1329.43 905.454 1312.48C893.951 1295.52 978.309 1290.29 978.309 1290.29C885.592 1289.02 907.883 1277.25 907.883 1277.25C949.174 1241.11 1010.91 1280.31 1012.22 1281.14C900.065 1170.26 957.457 1174.18 957.457 1174.18L1077.98 1298.7L1114.01 1335.92L1194.98 1241.82L1217.54 1255.03C1223.54 1291.45 1225.22 1350.13 1187.04 1392.48Z" fill="#FCBAB9"/>
</svg>
