<svg width="2758" height="1493" viewBox="0 0 2758 1493" fill="none" xmlns="http://www.w3.org/2000/svg">
<path d="M331.697 456.427H2425.88C2444.91 456.424 2463.76 460.165 2481.35 467.434C2498.94 474.704 2514.92 485.361 2528.37 498.796C2541.83 512.23 2552.51 528.18 2559.79 545.733C2567.07 563.286 2570.81 582.099 2570.81 601.097V1473.44H186.768V601.097C186.761 582.099 190.505 563.286 197.786 545.733C205.067 528.18 215.741 512.23 229.2 498.796C242.659 485.361 258.638 474.704 276.225 467.434C293.812 460.165 312.661 456.424 331.697 456.427Z" fill="white"/>
<path d="M2032.01 1473.39H929.63L922.456 437.027C925.001 437.207 927.566 437.277 930.161 437.277L1576.22 434.937C1587.15 434.89 1597.95 432.671 1608 428.407C1618.06 424.143 1627.16 417.922 1634.78 410.105C1642.39 402.289 1648.37 393.036 1652.36 382.887C1656.35 372.738 1658.27 361.896 1658.01 350.997C1656.95 306.247 1619.12 270.997 1574.27 270.997H921.304L920.232 115.267C920.191 109.402 921.313 103.587 923.533 98.1572C925.754 92.7273 929.029 87.7894 933.169 83.628C937.31 79.4666 942.235 76.164 947.66 73.9103C953.086 71.6566 958.904 70.4964 964.78 70.4966H1968.06C1979.77 70.4954 1991.01 75.0929 1999.34 83.295C2007.68 91.4971 2012.45 102.645 2012.61 114.327L2032.01 1473.39Z" fill="#00171F"/>
<path d="M1896.63 468.157H1020.67C1009.24 468.157 999.981 477.402 999.981 488.807V1338.37C999.981 1349.77 1009.24 1359.02 1020.67 1359.02H1896.63C1908.06 1359.02 1917.32 1349.77 1917.32 1338.37V488.807C1917.32 477.402 1908.06 468.157 1896.63 468.157Z" fill="white"/>
<path d="M1575.92 271.027H831.204V338.867C831.207 363.698 840.612 387.61 857.534 405.813C874.456 424.016 897.646 435.165 922.456 437.027C925.001 437.207 927.566 437.277 930.162 437.277L1576.22 434.937C1597.53 434.194 1617.71 425.214 1632.51 409.895C1647.31 394.575 1655.56 374.115 1655.52 352.837C1655.48 331.559 1647.15 311.129 1632.3 295.863C1617.45 280.598 1597.23 271.692 1575.92 271.027ZM944.811 424.917C928.056 424.928 911.838 419.017 899.035 408.232C886.231 397.446 877.669 382.483 874.868 365.997C872.066 349.511 875.206 332.567 883.73 318.172C892.255 303.776 905.612 292.859 921.434 287.357C928.94 284.701 936.847 283.348 944.811 283.357C954.193 283.245 963.505 284.994 972.205 288.5C980.906 292.006 988.823 297.201 995.497 303.783C1002.17 310.366 1007.47 318.204 1011.09 326.845C1014.7 335.486 1016.57 344.757 1016.57 354.122C1016.57 363.486 1014.7 372.758 1011.09 381.398C1007.47 390.039 1002.17 397.878 995.497 404.46C988.823 411.043 980.906 416.237 972.205 419.744C963.505 423.25 954.193 424.998 944.811 424.887V424.917ZM1313.33 391.217H1042.61C1041.28 391.217 1040 390.69 1039.06 389.752C1038.12 388.815 1037.6 387.543 1037.6 386.217C1037.6 384.891 1038.12 383.619 1039.06 382.681C1040 381.744 1041.28 381.217 1042.61 381.217H1313.33C1314.66 381.217 1315.93 381.744 1316.87 382.681C1317.81 383.619 1318.34 384.891 1318.34 386.217C1318.34 387.543 1317.81 388.815 1316.87 389.752C1315.93 390.69 1314.66 391.217 1313.33 391.217ZM1568.95 329.857H1042.61C1041.28 329.857 1040 329.33 1039.06 328.392C1038.12 327.455 1037.6 326.183 1037.6 324.857C1037.6 323.531 1038.12 322.259 1039.06 321.321C1040 320.384 1041.28 319.857 1042.61 319.857H1568.95C1570.28 319.857 1571.55 320.384 1572.49 321.321C1573.43 322.259 1573.96 323.531 1573.96 324.857C1573.96 326.183 1573.43 327.455 1572.49 328.392C1571.55 329.33 1570.28 329.857 1568.95 329.857Z" fill="#4F52FF"/>
<path d="M944.811 283.387C936.847 283.378 928.94 284.731 921.434 287.387C904.67 293.266 890.73 305.214 882.375 320.864C874.02 336.515 871.86 354.727 876.322 371.892C880.784 389.057 891.544 403.923 906.469 413.546C921.394 423.169 939.397 426.846 956.91 423.849C974.423 420.853 990.17 411.401 1001.03 397.365C1011.89 383.33 1017.07 365.736 1015.55 348.068C1014.03 330.4 1005.92 313.946 992.814 301.967C979.712 289.988 962.58 283.357 944.811 283.387ZM988.117 322.267L939.601 376.617C939.133 377.136 938.563 377.553 937.927 377.844C937.291 378.135 936.602 378.292 935.903 378.307H935.823C935.142 378.303 934.468 378.163 933.841 377.895C933.215 377.627 932.648 377.237 932.176 376.747L921.955 365.997L902.527 345.527C902.072 345.048 901.716 344.485 901.48 343.869C901.243 343.253 901.131 342.597 901.148 341.937C901.166 341.278 901.314 340.629 901.583 340.026C901.852 339.424 902.237 338.88 902.717 338.427C903.197 337.973 903.761 337.618 904.378 337.382C904.995 337.146 905.653 337.034 906.313 337.051C906.974 337.069 907.625 337.216 908.228 337.485C908.832 337.753 909.376 338.138 909.831 338.617L921.855 351.277L935.723 365.867L980.592 315.587C981.032 315.094 981.564 314.692 982.159 314.404C982.755 314.116 983.401 313.948 984.061 313.91C984.721 313.871 985.382 313.963 986.007 314.179C986.632 314.396 987.207 314.733 987.702 315.172C988.196 315.61 988.598 316.142 988.887 316.736C989.175 317.33 989.343 317.974 989.382 318.633C989.42 319.292 989.329 319.952 989.112 320.576C988.895 321.199 988.557 321.774 988.117 322.267Z" fill="white"/>
<path d="M988.117 322.267L939.6 376.617C939.133 377.136 938.563 377.553 937.927 377.844C937.291 378.135 936.602 378.292 935.903 378.307H935.823C935.141 378.303 934.467 378.163 933.841 377.895C933.215 377.627 932.648 377.237 932.176 376.747L921.955 365.997L902.526 345.527C902.072 345.048 901.716 344.485 901.48 343.869C901.243 343.253 901.131 342.597 901.148 341.938C901.166 341.278 901.314 340.629 901.583 340.027C901.852 339.424 902.237 338.881 902.717 338.427C903.197 337.973 903.761 337.618 904.378 337.382C904.995 337.146 905.653 337.034 906.313 337.051C906.974 337.069 907.625 337.216 908.228 337.485C908.832 337.754 909.376 338.138 909.831 338.617L921.855 351.277L935.723 365.867L980.592 315.587C981.48 314.591 982.728 313.988 984.061 313.91C985.394 313.832 986.704 314.286 987.701 315.172C988.699 316.058 989.304 317.303 989.382 318.633C989.46 319.964 989.005 321.271 988.117 322.267Z" fill="#E2C707"/>
<path d="M1573.98 324.827C1573.98 326.153 1573.45 327.425 1572.51 328.362C1571.57 329.3 1570.3 329.827 1568.97 329.827H1042.61C1041.28 329.827 1040 329.3 1039.06 328.362C1038.12 327.425 1037.6 326.153 1037.6 324.827C1037.6 323.501 1038.12 322.229 1039.06 321.291C1040 320.353 1041.28 319.827 1042.61 319.827H1568.95C1569.61 319.824 1570.26 319.951 1570.87 320.202C1571.48 320.452 1572.04 320.82 1572.5 321.284C1572.97 321.749 1573.34 322.301 1573.59 322.909C1573.85 323.517 1573.98 324.168 1573.98 324.827Z" fill="white"/>
<path d="M1318.36 386.187C1318.36 387.513 1317.83 388.784 1316.89 389.722C1315.95 390.66 1314.68 391.187 1313.35 391.187H1042.61C1041.28 391.187 1040 390.66 1039.06 389.722C1038.12 388.784 1037.6 387.513 1037.6 386.187C1037.6 384.86 1038.12 383.589 1039.06 382.651C1040 381.713 1041.28 381.187 1042.61 381.187H1313.33C1313.99 381.184 1314.64 381.311 1315.25 381.561C1315.86 381.812 1316.41 382.179 1316.88 382.644C1317.35 383.109 1317.72 383.661 1317.97 384.269C1318.23 384.877 1318.36 385.528 1318.36 386.187Z" fill="white"/>
<path d="M1582.71 861.866C1582.71 868.119 1581.12 874.269 1578.11 879.749C1575.09 885.228 1570.74 889.86 1565.45 893.216H1525.56C1520.09 889.764 1515.62 884.948 1512.59 879.245C1509.56 873.541 1508.06 867.147 1508.26 860.693C1508.46 854.239 1510.34 847.949 1513.72 842.442C1517.1 836.934 1521.86 832.401 1527.53 829.29C1533.19 826.178 1539.58 824.595 1546.05 824.697C1552.52 824.799 1558.85 826.582 1564.42 829.871C1569.98 833.16 1574.6 837.841 1577.8 843.452C1581 849.062 1582.68 855.409 1582.67 861.866H1582.71Z" fill="#E2C707"/>
<path d="M1565.8 893.217H1525.19C1523.37 893.217 1521.9 894.685 1521.9 896.497V899.907C1521.9 901.718 1523.37 903.187 1525.19 903.187H1565.8C1567.62 903.187 1569.09 901.718 1569.09 899.907V896.497C1569.09 894.685 1567.62 893.217 1565.8 893.217Z" fill="#00171F"/>
<path d="M1528.99 903.187V905.286C1528.99 905.717 1529.07 906.143 1529.24 906.54C1529.4 906.938 1529.64 907.299 1529.95 907.602C1530.26 907.906 1530.62 908.147 1531.02 908.311C1531.42 908.474 1531.84 908.558 1532.27 908.557H1535.28V920.017H1537.6V908.557H1552.97V920.017H1555.3V908.557H1558.31C1558.74 908.558 1559.16 908.474 1559.56 908.311C1559.96 908.147 1560.32 907.906 1560.63 907.602C1560.93 907.299 1561.18 906.938 1561.34 906.54C1561.51 906.143 1561.59 905.717 1561.59 905.286V903.187H1528.99Z" fill="#00171F"/>
<path d="M1477.57 717.367H1421.46C1420.66 712.241 1418.25 707.5 1414.59 703.82C1410.92 700.14 1406.19 697.708 1401.06 696.872C1395.93 696.036 1390.66 696.839 1386.01 699.165C1381.37 701.491 1377.58 705.223 1375.18 709.827C1372.37 687.113 1361.35 666.206 1344.18 651.036C1327.01 635.866 1304.88 627.477 1281.94 627.447H1187.99V660.737H1130.87V668.267H1187.99V774.167H1130.87V781.697H1187.99V814.987H1281.94C1304.88 814.957 1327.01 806.568 1344.18 791.398C1361.35 776.227 1372.37 755.32 1375.18 732.607C1377.58 737.211 1381.37 740.942 1386.01 743.269C1390.66 745.595 1395.93 746.397 1401.06 745.561C1406.19 744.726 1410.92 742.294 1414.59 738.614C1418.25 734.934 1420.66 730.192 1421.46 725.067H1477.57V717.367ZM1281.92 804.937H1198.04V637.497H1281.92C1304.17 637.497 1325.51 646.317 1341.24 662.018C1356.97 677.718 1365.81 699.013 1365.81 721.217C1365.81 743.421 1356.97 764.715 1341.24 780.416C1325.51 796.116 1304.17 804.937 1281.92 804.937ZM1397.06 735.837C1394.17 735.837 1391.33 734.979 1388.92 733.373C1386.52 731.766 1384.64 729.483 1383.53 726.812C1382.42 724.14 1382.13 721.201 1382.7 718.365C1383.26 715.529 1384.66 712.924 1386.7 710.879C1388.75 708.834 1391.36 707.442 1394.21 706.878C1397.05 706.314 1399.99 706.603 1402.67 707.71C1405.35 708.816 1407.63 710.69 1409.24 713.094C1410.85 715.499 1411.71 718.325 1411.71 721.217C1411.71 725.093 1410.17 728.811 1407.42 731.552C1404.67 734.293 1400.95 735.834 1397.06 735.837Z" fill="#00171F"/>
<path d="M1823.42 616.287H1767.61C1766.6 592.115 1756.27 569.27 1738.78 552.516C1721.29 535.762 1698 526.394 1673.76 526.367H1579.8V559.657H1521.36V567.187H1579.8V673.097H1521.36V680.627H1579.8V713.917H1673.76C1698 713.889 1721.29 704.521 1738.78 687.767C1756.27 671.014 1766.6 648.168 1767.61 623.997H1823.42V616.287ZM1673.76 703.857H1589.87V536.417H1673.76C1684.77 536.417 1695.68 538.582 1705.86 542.789C1716.04 546.997 1725.28 553.164 1733.07 560.938C1740.86 568.712 1747.04 577.941 1751.26 588.098C1755.47 598.256 1757.64 609.142 1757.64 620.137C1757.64 631.131 1755.47 642.018 1751.26 652.175C1747.04 662.332 1740.86 671.562 1733.07 679.336C1725.28 687.11 1716.04 693.277 1705.86 697.484C1695.68 701.691 1684.77 703.857 1673.76 703.857Z" fill="#00171F"/>
<path d="M1092.29 686.107C1104.24 686.107 1113.94 676.432 1113.94 664.497C1113.94 652.562 1104.24 642.887 1092.29 642.887C1080.33 642.887 1070.63 652.562 1070.63 664.497C1070.63 676.432 1080.33 686.107 1092.29 686.107Z" fill="#1A0F91"/>
<path d="M1092.29 799.036C1104.24 799.036 1113.94 789.361 1113.94 777.426C1113.94 765.492 1104.24 755.816 1092.29 755.816C1080.33 755.816 1070.63 765.492 1070.63 777.426C1070.63 789.361 1080.33 799.036 1092.29 799.036Z" fill="#1A0F91"/>
<path d="M1486.15 723.237C1482.09 723.237 1477 723.037 1470.61 722.567L1470.79 720.067C1497.78 722.067 1499.33 718.957 1499.41 718.597C1499.68 717.517 1494.75 714.887 1491.15 712.967C1481.85 707.967 1467.79 700.507 1461.46 686.307C1456.09 674.307 1454.51 658.587 1460.46 655.617C1462.75 654.457 1464.8 656.327 1467.61 658.907C1471.46 662.621 1475.85 665.727 1480.64 668.117C1487.13 671.297 1492.66 672.187 1501.68 673.657C1510.96 675.145 1520.36 675.681 1529.74 675.257L1529.85 677.767C1520.3 678.196 1510.72 677.65 1501.28 676.137C1491.95 674.627 1486.31 673.717 1479.49 670.377C1474.5 667.872 1469.93 664.629 1465.92 660.757C1463.92 658.927 1462.35 657.487 1461.6 657.857C1457.99 659.667 1458.3 672.947 1463.81 685.287C1469.82 698.697 1483.39 705.957 1492.38 710.757C1498.77 714.167 1502.62 716.217 1501.89 719.197C1501.35 721.277 1498.8 723.237 1486.15 723.237Z" fill="#00171F"/>
<path d="M1619.49 987.197C1610.7 987.261 1601.94 986.315 1593.38 984.377C1582.13 981.747 1555.65 973.907 1552.52 958.107C1552.12 956.107 1552.19 954.537 1552.37 950.337C1552.48 947.797 1552.64 944.247 1552.76 938.997C1552.92 932.087 1552.95 925.137 1552.86 918.317H1555.38C1555.47 925.157 1555.44 932.147 1555.28 939.087C1555.16 944.357 1555 947.917 1554.89 950.477C1554.72 954.477 1554.65 955.947 1554.99 957.647C1557.83 972.017 1583.19 979.437 1593.95 981.967C1634.45 991.467 1689.08 975.077 1712.76 954.417C1719.91 948.187 1723.42 942.167 1722.91 937.027C1721.91 927.257 1706.39 922.637 1689.85 917.747C1670.54 912.027 1650.57 906.107 1647.91 890.827C1643.46 865.147 1692.46 826.227 1743.26 815.117C1761.55 811.117 1777.5 812.277 1791.57 813.297C1808.45 814.527 1821.77 815.497 1829.94 805.847C1837.72 796.637 1834.46 785.847 1830.33 772.107C1825.91 757.447 1820.41 739.207 1828.65 717.937C1834.18 703.627 1843.68 693.487 1852.9 683.677C1864.47 671.337 1875.4 659.677 1878.18 640.677C1879.52 631.677 1878.31 624.977 1874.83 621.887C1871.34 618.797 1866.5 619.357 1857.65 620.307C1855.19 620.567 1852.43 620.867 1849.34 621.117C1838.69 621.977 1827.99 622.071 1817.33 621.397L1817.49 618.887C1828.03 619.549 1838.6 619.459 1849.13 618.617C1852.2 618.357 1854.94 618.067 1857.38 617.807C1866.64 616.807 1872.21 616.217 1876.49 620.007C1879.43 622.597 1882.5 628.357 1880.68 641.007C1877.77 660.777 1866.07 673.257 1854.74 685.327C1845.72 694.967 1836.35 704.927 1830.99 718.777C1823.07 739.247 1828.2 756.287 1832.74 771.327C1836.92 785.187 1840.53 797.157 1831.86 807.407C1822.84 818.027 1808.98 817.017 1791.39 815.747C1777.49 814.747 1761.73 813.587 1743.81 817.507C1695.11 828.167 1646.22 866.287 1650.39 890.337C1652.78 904.087 1671.99 909.777 1690.57 915.337C1707.89 920.467 1724.26 925.337 1725.37 936.767C1725.95 942.767 1722.14 949.507 1714.35 956.297C1695.11 973.097 1655.63 987.197 1619.49 987.197Z" fill="#00171F"/>
<path d="M1477.57 583.087C1489.53 583.087 1499.23 573.412 1499.23 561.477C1499.23 549.542 1489.53 539.867 1477.57 539.867C1465.62 539.867 1455.92 549.542 1455.92 561.477C1455.92 573.412 1465.62 583.087 1477.57 583.087Z" fill="#1A0F91"/>
<path d="M2757.61 1481.17C2757.61 1484.08 2756.45 1486.88 2754.38 1488.94C2752.31 1491.01 2749.51 1492.17 2746.59 1492.17H11.0571C8.12456 1492.17 5.31215 1491 3.23854 1488.93C1.16494 1486.87 0 1484.06 0 1481.13C0 1478.2 1.16494 1475.4 3.23854 1473.33C5.31215 1471.26 8.12456 1470.1 11.0571 1470.1H2746.57C2748.02 1470.09 2749.46 1470.38 2750.81 1470.93C2752.15 1471.49 2753.37 1472.31 2754.4 1473.34C2755.43 1474.37 2756.24 1475.59 2756.79 1476.93C2757.34 1478.27 2757.62 1479.71 2757.61 1481.17Z" fill="#00090C"/>
<path d="M1685.31 1437.84L1645.99 1337.25L1585.59 1182.68L1529.68 1039.54H833.438L1004.04 1437.84L1017.86 1470.12H1697.88L1685.31 1437.84ZM1267.97 1304.9C1240.51 1304.9 1218.24 1286.81 1218.24 1264.54C1218.24 1242.27 1240.51 1224.15 1267.97 1224.15C1295.42 1224.15 1317.72 1242.23 1317.72 1264.54C1317.72 1286.85 1295.45 1304.9 1267.97 1304.9Z" fill="#00090C"/>
<path d="M1317.72 1264.54C1317.72 1286.81 1295.45 1304.9 1267.97 1304.9C1240.48 1304.9 1218.24 1286.81 1218.24 1264.54C1218.24 1242.27 1240.51 1224.15 1267.97 1224.15C1295.42 1224.15 1317.72 1242.23 1317.72 1264.54Z" stroke="#42E520" stroke-miterlimit="10"/>
<path d="M1317.72 1264.54C1317.72 1286.81 1295.45 1304.9 1267.97 1304.9C1240.48 1304.9 1218.24 1286.81 1218.24 1264.54C1218.24 1242.27 1240.51 1224.15 1267.97 1224.15C1295.42 1224.15 1317.72 1242.23 1317.72 1264.54Z" fill="#E2C707"/>
<path d="M2458.33 1039.54C2457.75 1067.09 2457.77 1128.83 2458.03 1197.22C2448.01 1211.33 2435.66 1228.66 2422.49 1247.22L2421.11 1246.76C2290.07 1107.92 2196.22 1133.76 2196.22 1133.76C2175.18 1146.69 2118.57 1277.48 2118.57 1277.48C2011.49 1276.75 1904.36 1288.98 1819.25 1302.57L1828.96 1239.8C1821.46 1214.8 1711.23 1133.08 1660.27 1096.89C1696.85 1053.11 1740.9 998.047 1786.9 935.157C1905.01 773.707 1943.84 796.317 2026.38 786.617C2026.38 786.617 2011.83 868.977 2112.12 872.197C2212.41 875.417 2229.22 784.407 2229.22 784.407C2275.86 790.407 2322.77 802.297 2364.49 823.767C2474.48 880.247 2459.94 961.477 2458.33 1039.54Z" fill="#4F52FF"/>
<path d="M1828.96 1239.77L1819.25 1302.54C1716.61 1318.89 1645.99 1337.25 1645.99 1337.25L1585.59 1182.68C1602.62 1163.89 1628.68 1134.56 1660.27 1096.86C1711.23 1133.1 1821.46 1214.78 1828.96 1239.77Z" fill="#FEBBBA"/>
<path d="M1919.56 1437.84V1470.11H1697.91L1685.31 1437.84H1919.56Z" fill="#00090C"/>
<path d="M2459.81 1470.1H2176.81C2262.56 1470.1 2294.92 1429.21 2338.58 1366.24C2359.37 1336.24 2392.99 1288.78 2422.49 1247.24C2435.66 1228.72 2447.98 1211.39 2458.03 1197.24C2458.1 1217.46 2458.2 1238.24 2458.3 1258.93C2458.88 1366.33 2459.81 1470.1 2459.81 1470.1Z" fill="#1A0F91"/>
<path d="M2422.49 1247.21C2392.99 1288.8 2359.36 1336.29 2338.58 1366.21C2294.92 1429.21 2262.56 1470.07 2176.81 1470.07H1919.56V1437.79H1685.31L1645.99 1337.2C1645.99 1337.2 1716.61 1318.84 1819.25 1302.49C1904.36 1288.9 2011.49 1276.67 2118.57 1277.4C2118.57 1277.4 2175.21 1146.61 2196.22 1133.68C2196.22 1133.68 2290.07 1107.86 2421.11 1246.68L2422.49 1247.21Z" fill="#FEBBBA"/>
<path d="M2212.07 592.437C2206.65 596.906 2200.8 600.829 2194.61 604.147C2190.47 620.245 2185.11 636.004 2178.57 651.287C2168.05 675.957 2152.07 704.607 2129.88 722.017C2104.88 741.607 2067.61 757.257 2031.57 752.737C2002.27 749.067 1973.82 732.037 1953.5 692.927C1908.2 605.747 1953.5 431.367 1953.5 431.367C1981.01 489.487 2107.22 442.667 2107.22 442.667C2131.48 520.177 2165.46 495.967 2165.46 495.967L2183.25 562.147L2205.9 536.327C2243.51 557.147 2227.9 579.307 2212.07 592.437Z" fill="#FEBBBA"/>
<path d="M2259.3 495.967C2259.3 495.967 2277.34 640.237 2219.48 675.447L2212.07 592.447C2227.9 579.317 2243.48 557.157 2205.93 536.337L2183.28 562.157L2165.49 495.977C2165.49 495.977 2131.51 520.187 2107.25 442.677C2107.25 442.677 1981 489.497 1953.53 431.377C1953.53 431.377 1861.35 345.807 1901.76 266.687C1942.17 187.567 2191.34 284.447 2199.47 372.457C2199.47 372.457 2281.96 361.957 2290.07 394.257C2298.17 426.557 2294.92 489.487 2259.3 495.967Z" fill="#1A0F91"/>
<path d="M2229.18 784.377C2229.18 784.377 2212.4 875.377 2112.08 872.167C2011.76 868.957 2026.34 786.587 2026.34 786.587L2031.6 752.737C2067.67 757.257 2104.91 741.607 2129.91 722.017C2152.1 704.607 2168.08 675.956 2178.6 651.286C2185.14 636.004 2190.5 620.245 2194.64 604.147C2200.83 600.829 2206.68 596.906 2212.1 592.437L2219.51 675.437L2229.18 784.377Z" fill="#FEBBBA"/>
<path d="M2041.4 1070.56L2033.95 1069.37C2034.16 1068.05 2054.99 937.727 2056.28 921.117C2057.7 903.117 2086.9 877.787 2090.23 874.947L2095.13 880.687C2086.76 887.817 2064.81 909.097 2063.8 921.687C2062.47 938.617 2042.26 1065.18 2041.4 1070.56Z" fill="#1A0F91"/>
<path d="M2101.58 940.786C2108.28 940.786 2113.71 935.365 2113.71 928.676C2113.71 921.988 2108.28 916.566 2101.58 916.566C2094.88 916.566 2089.45 921.988 2089.45 928.676C2089.45 935.365 2094.88 940.786 2101.58 940.786Z" fill="#1A0F91"/>
<path d="M2089.45 996.967C2096.15 996.967 2101.58 991.545 2101.58 984.857C2101.58 978.168 2096.15 972.747 2089.45 972.747C2082.74 972.747 2077.31 978.168 2077.31 984.857C2077.31 991.545 2082.74 996.967 2089.45 996.967Z" fill="#1A0F91"/>
<path d="M2081.29 1048.42C2087.99 1048.42 2093.42 1042.99 2093.42 1036.31C2093.42 1029.62 2087.99 1024.2 2081.29 1024.2C2074.59 1024.2 2069.16 1029.62 2069.16 1036.31C2069.16 1042.99 2074.59 1048.42 2081.29 1048.42Z" fill="#1A0F91"/>
<path d="M1862.61 1276.54L1858.42 1270.27C1861.81 1268.02 1888.07 1244.62 1904.91 1229.44L1909.92 1235.03C1905.64 1238.93 1867.55 1273.25 1862.61 1276.54Z" fill="#1A0F91"/>
<path d="M2179.38 1329.67C2167.2 1304.32 2130.98 1288.6 2130.61 1288.44L2133.61 1281.51C2135.21 1282.2 2172.82 1298.51 2186.23 1326.4L2179.38 1329.67Z" fill="#DB9C9C"/>
<path d="M2071.24 580.727C2080.4 580.727 2087.82 573.317 2087.82 564.177C2087.82 555.037 2080.4 547.627 2071.24 547.627C2062.08 547.627 2054.66 555.037 2054.66 564.177C2054.66 573.317 2062.08 580.727 2071.24 580.727Z" fill="#00171F"/>
<path d="M1970.74 557.307C1979.34 557.307 1986.31 550.349 1986.31 541.767C1986.31 533.184 1979.34 526.227 1970.74 526.227C1962.14 526.227 1955.17 533.184 1955.17 541.767C1955.17 550.349 1962.14 557.307 1970.74 557.307Z" fill="#00171F"/>
<path d="M373.19 1296.48L366.416 1470.1H179.834V1295.73C179.833 1293.18 180.334 1290.67 181.308 1288.32C182.282 1285.97 183.711 1283.83 185.513 1282.03C187.314 1280.24 189.453 1278.81 191.808 1277.84C194.162 1276.87 196.685 1276.37 199.233 1276.37H353.741C356.356 1276.36 358.946 1276.88 361.355 1277.9C363.763 1278.92 365.941 1280.41 367.757 1282.29C369.573 1284.17 370.991 1286.39 371.924 1288.83C372.858 1291.27 373.288 1293.87 373.19 1296.48Z" fill="#1A0F91"/>
<path d="M258.07 1276.37H250.174C247.649 1267.37 243.802 1254.77 238.621 1240.45C224.303 1201.07 199.834 1149.2 164.904 1127.8L168.852 1121.37C205.596 1143.9 230.746 1196.37 245.415 1236.61C251.307 1252.76 255.545 1266.92 258.07 1276.37Z" fill="#00171F"/>
<path d="M338.15 1106.43C337.148 1107.73 336.146 1109.11 335.234 1110.55C334.884 1111.05 334.533 1111.55 334.232 1112.13C333.731 1112.88 333.23 1113.66 332.799 1114.47C332.399 1115.12 332.018 1115.77 331.637 1116.47C331.256 1117.17 330.735 1118.1 330.284 1118.96C329.282 1120.79 328.28 1122.7 327.389 1124.68C326.497 1126.66 325.545 1128.68 324.673 1130.76C323.801 1132.84 322.93 1134.95 322.128 1137.14C321.747 1138.07 321.397 1139.02 321.066 1139.98C320.345 1141.91 319.663 1143.9 319.002 1145.88C318.601 1147.06 318.23 1148.27 317.85 1149.47C317.469 1150.67 317.018 1152.11 316.617 1153.47C316.387 1154.2 316.166 1154.95 315.966 1155.71C315.435 1157.44 314.964 1159.2 314.473 1160.96C313.04 1166.15 311.707 1171.48 310.465 1176.85C309.934 1179.14 309.463 1181.45 308.952 1183.74C308.441 1186.03 307.95 1188.56 307.469 1190.97C307.469 1191.07 307.469 1191.17 307.419 1191.27C306.908 1193.78 306.417 1196.27 306.006 1198.81C305.705 1200.44 305.425 1202.05 305.154 1203.65C304.573 1207.01 304.025 1210.35 303.511 1213.65C303.391 1214.47 303.26 1215.3 303.14 1216.13C302.526 1220.25 301.955 1224.28 301.427 1228.24C298.812 1247.93 297.329 1265.24 296.517 1276.39H288.922C289.924 1262.04 291.988 1237.39 296.287 1210.39C299.713 1188.59 304.573 1165.29 311.417 1144.61C316.928 1127.89 323.751 1112.92 332.128 1101.92L338.15 1106.43Z" fill="#00171F"/>
<path d="M405.474 1168.1C383.15 1218.98 338.431 1258.37 315.204 1276.38H302.639C315.505 1266.96 345.906 1243 371.226 1210.22C380.348 1198.55 388.295 1186.02 394.953 1172.8C396.266 1170.26 397.468 1167.7 398.601 1165.09L405.474 1168.1Z" fill="#00171F"/>
<path d="M371.176 1210.21C345.855 1242.99 315.455 1266.95 302.589 1276.37H301.236C300.705 1259.49 300.805 1243.44 301.437 1228.22C301.964 1224.27 302.536 1220.23 303.15 1216.11C303.27 1215.28 303.401 1214.45 303.521 1213.63C315.785 1215.53 348.4 1219.35 371.176 1210.21Z" fill="#52565F"/>
<path d="M877.246 1470.1H634.942L605.053 1270.97L565.965 1470.1H366.416L373.19 1296.46C373.286 1293.85 372.853 1291.25 371.918 1288.82C370.984 1286.38 369.566 1284.16 367.75 1282.28C365.934 1280.41 363.757 1278.91 361.35 1277.9C358.943 1276.88 356.355 1276.36 353.741 1276.37H315.164C338.39 1258.37 383.11 1218.97 405.434 1168.09L398.51 1165.09C397.378 1167.7 396.176 1170.26 394.863 1172.8C390.585 1112.47 384.623 1086.98 389.733 1064.87C389.733 1064.87 356.456 1074.97 326.156 1090.49C340.124 1050.43 357.338 1022.58 370.825 1004.92C406.086 1006.18 436.216 1010.05 456.997 1012.21C492.578 1015.92 661.405 994.897 658.68 980.377H776.585C857.416 1074.15 874.631 1405.29 877.246 1470.1Z" fill="#52565F"/>
<path d="M275.685 1181.02C274.303 1199.86 264.743 1216.13 245.415 1236.58C230.746 1196.36 205.595 1143.87 168.852 1121.34L164.904 1127.77C199.834 1149.17 224.303 1201.04 238.621 1240.42C217.579 1243.96 115.656 1257.57 120.516 1189.08C125.896 1112.73 133.451 1080.43 126.978 1052.45C126.978 1052.45 251.006 1090.12 267.188 1135.33C269.503 1141.84 271.387 1147.89 272.8 1153.57C275.315 1163.67 276.317 1172.61 275.685 1181.02Z" fill="#4F52FF"/>
<path d="M394.903 1172.76C388.245 1185.98 380.297 1198.51 371.176 1210.18C348.4 1219.32 315.785 1215.5 303.521 1213.6C304.029 1210.26 304.576 1206.93 305.164 1203.6C305.435 1202 305.715 1200.39 306.016 1198.76C306.467 1196.24 306.948 1193.76 307.429 1191.22C307.429 1191.12 307.429 1191.02 307.479 1190.92C307.95 1188.51 308.431 1186.1 308.962 1183.69C309.493 1181.28 309.964 1179.09 310.475 1176.8C311.677 1171.43 313.01 1166.1 314.483 1160.91C314.964 1159.15 315.485 1157.39 315.976 1155.66C316.176 1154.9 316.397 1154.15 316.627 1153.42C317.028 1152.09 317.429 1150.76 317.859 1149.42C318.29 1148.08 318.611 1147.01 319.012 1145.83C319.673 1143.83 320.354 1141.83 321.076 1139.93C321.407 1138.93 321.757 1138.02 322.138 1137.09C322.94 1134.9 323.801 1132.8 324.683 1130.71C325.565 1128.62 326.467 1126.59 327.399 1124.63C328.33 1122.67 329.282 1120.74 330.294 1118.91C330.749 1118.05 331.199 1117.22 331.647 1116.42C332.028 1115.74 332.409 1115.09 332.809 1114.42C333.26 1113.61 333.741 1112.83 334.242 1112.08C334.573 1111.55 334.924 1111 335.244 1110.5C336.246 1109.06 337.158 1107.68 338.16 1106.38L332.148 1101.81C323.771 1112.81 316.948 1127.81 311.437 1144.5C304.593 1165.18 299.733 1188.5 296.306 1210.28C286.166 1199.58 279.423 1190.34 275.695 1181C276.327 1172.59 275.325 1163.65 272.81 1153.58C274.096 1145.62 276.177 1137.81 279.022 1130.27C284.353 1115.37 304.513 1101.51 326.206 1090.43C356.507 1074.91 389.783 1064.81 389.783 1064.81C384.663 1086.94 390.625 1112.43 394.903 1172.76Z" fill="#4F52FF"/>
<path d="M1189.02 1039.54H979.801L815.413 777.447L846.926 613.027C862.146 596.097 917.546 591.407 947.035 590.127C1022.22 727.437 1144.32 955.827 1189.02 1039.54Z" fill="#FEBBBA"/>
<path d="M531.436 837.727L525.524 846.947C528.089 841.597 530.324 837.877 531.436 837.727Z" stroke="#42E520" stroke-miterlimit="10"/>
<path d="M947.035 590.097C917.546 591.377 862.146 596.097 846.926 612.997L815.413 777.417L776.585 980.337H658.7C656.215 966.927 613.029 971.897 606.656 972.677C608.82 972.227 615.193 970.916 622.918 969.036H738.509L812.126 728.927L577.518 733.317L532.167 836.017C531.797 830.547 520.614 814.567 490.444 826.427C454.833 840.427 430.043 874.847 425.715 874.847C424.853 874.847 421.707 874.727 417.078 874.427V728.927C428.23 708.477 438.721 689.567 446.456 675.747C360.755 600.657 290.244 598.747 255.285 604.597C286.747 540.597 318.411 476.777 336.016 442.667C351.928 411.797 380.465 398.137 409.382 392.967C442.498 386.967 476.095 392.187 491.697 395.377L526.075 427.777L673.8 566.997L685.022 397.837C734.762 397.937 776.886 398.017 783.83 398.017C802.156 398.017 834.521 388.317 911.084 525.017C920.993 542.657 933.218 564.837 947.035 590.097Z" fill="#4F52FF"/>
<path d="M417.098 728.927V874.427C398.38 873.167 356.226 868.877 354.032 857.647C352.479 849.637 387.158 783.777 417.098 728.927Z" fill="#1A0F91"/>
<path d="M666.806 931.367C664.802 942.967 615.844 946.057 609.692 946.367C615.935 946.167 666.485 944.807 662.437 953.367C659.772 959.067 638.55 965.147 622.878 968.967C615.153 970.847 608.78 972.157 606.616 972.607C612.989 971.827 656.175 966.857 658.66 980.267C661.385 994.787 492.558 1015.81 456.977 1012.1C436.216 1009.94 406.086 1006.1 370.805 1004.81C343.459 1003.71 316.07 1004.69 288.872 1007.73C219.453 1015.81 168.972 1020.63 138.241 946.367C107.51 872.107 151.177 822.037 164.844 791.367C172.62 773.917 213.742 689.017 255.245 604.527C290.204 598.727 360.715 600.587 446.416 675.677C438.681 689.497 428.19 708.407 417.038 728.857C387.098 783.707 352.419 849.567 353.972 857.577C356.166 868.807 398.32 873.097 417.038 874.357C421.647 874.657 424.813 874.777 425.675 874.777C430.003 874.777 454.793 840.347 490.404 826.357C520.574 814.497 531.757 830.477 532.127 835.947L531.376 837.657C530.264 837.807 527.999 841.527 525.464 846.877C519.272 859.807 511.296 882.387 513.58 887.717C516.827 895.247 660.804 890.927 662.417 902.787C664 914.267 615.434 923.707 612.438 924.287C615.714 924.097 668.89 919.357 666.806 931.367Z" fill="#FEBBBA"/>
<path d="M531.436 837.727L532.187 836.017C532.287 836.997 532.017 837.657 531.436 837.727Z" stroke="#42E520" stroke-miterlimit="10"/>
<path d="M606.005 972.777C606.131 972.759 606.259 972.759 606.385 972.777" stroke="#42E520" stroke-miterlimit="10"/>
<path d="M606.384 972.727C606.258 972.709 606.13 972.709 606.004 972.727H605.854" stroke="#42E520" stroke-miterlimit="10"/>
<path d="M609.731 946.407C609.321 946.407 609.101 946.407 609.101 946.407" stroke="#42E520" stroke-miterlimit="10"/>
<path d="M612.497 924.356H612.347" stroke="#42E520" stroke-miterlimit="10"/>
<path d="M679.201 576.687H671.656V626.737H679.201V576.687Z" fill="#1A0F91"/>
<path d="M577.538 733.317L532.187 836.017C532.287 837.017 532.017 837.657 531.436 837.727L525.524 846.947C519.332 859.877 511.356 882.457 513.64 887.787C516.887 895.317 660.864 890.997 662.477 902.857C664.06 914.337 615.494 923.777 612.498 924.357C615.714 924.077 668.89 919.357 666.806 931.357C664.802 942.957 615.844 946.047 609.692 946.357C615.934 946.157 666.485 944.797 662.437 953.357C659.772 959.057 638.55 965.137 622.878 968.957H738.509L812.126 728.847L577.538 733.317ZM657.497 879.167C653.206 879.165 649.011 877.893 645.443 875.512C641.876 873.131 639.096 869.748 637.454 865.791C635.813 861.834 635.384 857.479 636.222 853.279C637.059 849.078 639.126 845.219 642.161 842.191C645.195 839.162 649.062 837.099 653.271 836.263C657.48 835.427 661.843 835.855 665.808 837.494C669.774 839.132 673.163 841.906 675.549 845.467C677.934 849.027 679.209 853.214 679.211 857.497C679.213 860.343 678.654 863.162 677.563 865.792C676.473 868.423 674.874 870.813 672.857 872.826C670.84 874.838 668.445 876.434 665.81 877.522C663.174 878.611 660.35 879.169 657.497 879.167Z" fill="#3D3F3F"/>
<path d="M531.436 837.727L532.187 836.017C532.287 836.997 532.017 837.657 531.436 837.727Z" stroke="#42E520" stroke-miterlimit="10"/>
<path d="M679.211 857.497C679.213 861.781 677.942 865.969 675.559 869.532C673.176 873.095 669.787 875.873 665.822 877.514C661.857 879.155 657.494 879.586 653.283 878.752C649.073 877.919 645.205 875.858 642.168 872.83C639.131 869.802 637.063 865.943 636.223 861.742C635.384 857.541 635.812 853.186 637.452 849.227C639.093 845.268 641.873 841.884 645.441 839.503C649.009 837.121 653.205 835.849 657.498 835.847C660.348 835.844 663.171 836.402 665.805 837.489C668.44 838.576 670.833 840.17 672.85 842.181C674.866 844.191 676.466 846.579 677.558 849.207C678.649 851.835 679.211 854.652 679.211 857.497Z" fill="#E2C707"/>
<path d="M750.383 267.757C746.665 289.257 720.463 345.967 677.377 362.677C657.898 370.237 634.942 369.607 609.101 353.857C587.373 340.735 568.853 322.939 554.893 301.767C525.494 257.207 524.963 211.767 524.963 211.767C571.345 199.937 640.383 112.767 640.383 112.767C666.255 152.577 750.383 160.097 750.383 160.097C750.383 160.097 755.794 236.537 750.383 267.757Z" fill="#FEBBBA"/>
<path d="M750.383 160.097C750.383 160.097 666.215 152.567 640.383 112.727C640.383 112.727 571.345 199.937 524.963 211.727C524.963 211.727 525.494 257.157 554.893 301.727C552.889 335.537 543.871 388.377 507.799 397.417H500.785C500.785 397.417 497.488 396.517 491.767 395.337C476.166 392.147 442.568 386.967 409.452 392.927C416.727 373.557 423.27 337.087 416.096 270.927C403.08 151.497 384.803 91.2166 465.644 40.6266C546.486 -9.96339 666.255 -3.50344 704 8.32656C704 8.32656 790.934 -20.7334 815.413 29.8566C839.891 80.4466 833.439 143.957 750.383 160.097Z" fill="#1A0F91"/>
<path d="M685.022 397.837L673.8 566.997L526.085 427.777L491.707 395.377C497.398 396.557 500.725 397.457 500.725 397.457H507.739C543.811 388.457 552.829 335.577 554.833 301.767C568.793 322.939 587.312 340.735 609.041 353.857C634.882 369.607 657.838 370.237 677.317 362.677L675.383 397.807C678.66 397.837 681.856 397.837 685.022 397.837Z" fill="#FEBBBA"/>
<path d="M507.748 397.457C507.748 397.457 507.748 397.457 507.698 397.457" stroke="#42E520" stroke-miterlimit="10"/>
<path d="M630.744 240.057C638.746 240.057 645.233 232.105 645.233 222.297C645.233 212.488 638.746 204.537 630.744 204.537C622.742 204.537 616.255 212.488 616.255 222.297C616.255 232.105 622.742 240.057 630.744 240.057Z" fill="#00171F"/>
<path d="M722.968 228.217C730.97 228.217 737.457 220.265 737.457 210.457C737.457 200.648 730.97 192.697 722.968 192.697C714.966 192.697 708.479 200.648 708.479 210.457C708.479 220.265 714.966 228.217 722.968 228.217Z" fill="#00171F"/>
<path d="M725.172 153.677C715.42 153.684 705.853 156.338 697.496 161.355C689.138 166.372 682.305 173.562 677.728 182.157C670.097 171.874 659.293 164.378 646.977 160.821C634.662 157.263 621.516 157.842 609.562 162.467C597.608 167.093 587.507 175.509 580.813 186.422C574.119 197.335 571.202 210.14 572.511 222.869C573.819 235.598 579.281 247.545 588.057 256.874C596.832 266.203 608.435 272.396 621.082 274.502C633.728 276.608 646.717 274.51 658.052 268.531C669.387 262.551 678.441 253.022 683.82 241.407C689.584 248.362 697.016 253.751 705.424 257.074C713.833 260.396 722.947 261.546 731.919 260.414C740.892 259.283 749.432 255.907 756.749 250.602C764.065 245.296 769.92 238.232 773.77 230.064C777.619 221.897 779.339 212.891 778.77 203.884C778.201 194.876 775.36 186.157 770.513 178.537C765.665 170.918 758.967 164.644 751.041 160.297C743.114 155.951 734.216 153.674 725.172 153.677ZM630.744 267.757C621.85 267.762 613.109 265.444 605.391 261.034C597.672 256.623 591.245 250.273 586.747 242.616C582.25 234.958 579.839 226.259 579.754 217.383C579.669 208.507 581.913 199.763 586.263 192.021C590.613 184.279 596.918 177.808 604.551 173.251C612.183 168.694 620.878 166.21 629.77 166.045C638.663 165.881 647.444 168.043 655.24 172.315C663.036 176.587 669.577 182.82 674.211 190.397C679.111 198.371 681.705 207.543 681.706 216.897C681.708 218.6 681.624 220.302 681.455 221.997C680.193 234.542 674.305 246.172 664.934 254.628C655.563 263.084 643.378 267.763 630.744 267.757ZM725.172 253.337C717.631 253.34 710.204 251.496 703.543 247.967C696.881 244.439 691.189 239.332 686.966 233.097C691.151 218.613 689.545 203.074 682.487 189.747C685.676 182.032 690.905 175.327 697.615 170.348C704.325 165.368 712.264 162.301 720.584 161.474C728.905 160.646 737.294 162.09 744.856 165.651C752.419 169.211 758.87 174.755 763.521 181.69C768.173 188.624 770.849 196.69 771.265 205.024C771.682 213.359 769.821 221.65 765.884 229.012C761.946 236.374 756.079 242.53 748.909 246.823C741.738 251.116 733.534 253.385 725.172 253.387V253.337Z" fill="#00171F"/>
<path d="M609.532 1260.54L602.177 1258.82C607.939 1234.34 617.207 1194.25 617.468 1190.91V1137.78H625.023V1191.1C625.013 1194.37 614.181 1240.75 609.532 1260.54Z" fill="#35383F"/>
</svg>
